<?xml version="1.0" encoding="utf-8"?>
<!-- Generator: Adobe Illustrator 16.0.3, SVG Export Plug-In . SVG Version: 6.00 Build 0)  -->
<!DOCTYPE svg PUBLIC "-//W3C//DTD SVG 1.1//EN" "http://www.w3.org/Graphics/SVG/1.1/DTD/svg11.dtd">
<svg version="1.1" id="Capa_1" xmlns="http://www.w3.org/2000/svg" xmlns:xlink="http://www.w3.org/1999/xlink" x="0px" y="0px"
	 width="500px" height="344.914px" viewBox="0 -20.086 500 344.914" enable-background="new 0 -20.086 500 344.914"
	 xml:space="preserve">
<path id="XMLID_28538_" fill="#F5F5F5" d="M96.533,283.917c84.977,44.394,222.75,44.394,307.727,0.001
	c84.978-44.395,84.978-116.367,0-160.76c-84.978-44.393-222.751-44.393-307.729-0.001C11.555,167.549,11.555,239.523,96.533,283.917
	z"/>
<rect x="-36.665" y="-81.357" fill="#FFFFFF" width="561.129" height="424.957"/>
<g>
	<path fill="#007BFF" d="M180.757,2.07c42.955-21.401,90.179-3.011,116.805,26.538c32.154,35.681,78.668,0.083,134.139,38.523
		c54.302,37.627,77.652,159.821-10.799,181.943c-82.142,20.548-357.234,9.264-376.507,0.08
		C-5.122,225.568-3.119,120.207,74.5,99.662C152.12,79.116,126.198,29.254,180.757,2.07z"/>
	<ellipse fill="#6FB2EF" cx="242.539" cy="251.112" rx="201.781" ry="8.817"/>
</g>
<g id="Plants">
	<g>
		<path id="XMLID_28833_" fill="#27DEBF" d="M64.806,209.455c0,0,3.517-9.674,4.301-20.223c0.784-10.547-4.323-26.695-13.688-32.104
			c-9.365-5.408-14.425,1.277-11.287,7.036s13.729,21.954,13.861,35.956L64.806,209.455z"/>
		<path id="XMLID_28544_" fill="#FFFFFF" d="M61.545,209.225c-0.027,0-0.055-0.002-0.082-0.007
			c-0.272-0.045-0.457-0.302-0.412-0.573l0.021-0.131c0.786-4.758,1.862-11.273,0.448-23.183
			c-1.591-13.399-5.967-19.599-10.037-23.896c-0.188-0.2-0.181-0.517,0.021-0.707c0.201-0.188,0.517-0.18,0.707,0.02
			c4.183,4.416,8.679,10.777,10.303,24.467c1.432,12.049,0.342,18.646-0.454,23.463l-0.021,0.129
			C61.997,209.051,61.785,209.225,61.545,209.225z"/>
		<path id="XMLID_28828_" fill="#27DEBF" d="M59.48,215.452c-0.972-4.943-4.661-10.496-11.687-13.763
			c-7.026-3.269-14.253-5.174-15.563-9.381c-1.307-4.209,3.14-9.08,12.292-7.037c9.153,2.045,18.96,15.645,18.438,24.797
			L59.48,215.452z"/>
		<path id="XMLID_28543_" fill="#FFFFFF" d="M61.543,212.762c-0.243,0-0.456-0.178-0.493-0.425
			c-1.874-12.399-12.393-21.864-20.661-22.604c-0.273-0.024-0.478-0.269-0.453-0.543c0.024-0.276,0.271-0.474,0.543-0.453
			c8.639,0.772,19.617,10.596,21.561,23.451c0.042,0.272-0.146,0.527-0.419,0.568C61.594,212.76,61.568,212.762,61.543,212.762z"/>
	</g>
	<g>
		<path id="XMLID_28822_" fill="#27DEBF" d="M402.211,120.469c0,0-4.666-10.316-3.9-19.163c0.781-9.047,4.012-17.517,11.676-23.468
			c7.665-5.951,13.627-3.253,14.892-1.076c1.264,2.177,1.292,6.47-4.418,11.14c-5.71,4.67-11.949,17.421-10.185,30.158l-2.622,7.45
			L402.211,120.469z"/>
		<path id="XMLID_28542_" fill="#FFFFFF" d="M405.029,121.452c-0.177,0-0.349-0.095-0.438-0.261
			c-1.946-3.584-2.242-18.452,0.896-26.769c3.818-10.118,10.703-15.837,15.873-17.815c0.255-0.098,0.547,0.03,0.646,0.288
			c0.099,0.258-0.03,0.547-0.288,0.646c-4.969,1.901-11.595,7.427-15.295,17.235c-2.996,7.941-2.775,22.582-0.952,25.938
			c0.132,0.243,0.042,0.546-0.201,0.678C405.192,121.432,405.11,121.452,405.029,121.452z"/>
		<path id="XMLID_28817_" fill="#27DEBF" d="M424.276,141.993c0.782-5.142,0.907-8.3,5.697-11.447
			c4.791-3.147,9.054-5.377,9.396-9.87c0.343-4.493-2.618-9.556-2.467-13.474c0.152-3.918,2.554-5.757,7.614-9.204
			c5.06-3.447,10.247-9.324,5.275-13.518c-4.972-4.193-12.382-0.297-15.759,2.628c-3.377,2.925-6.118,4.006-11.296,2.628
			c-5.179-1.378-10.245,2.208-9.014,8.815c1.231,6.606,0.595,9.613-3.572,9.381s-10.282,4.097-5.386,14.071L424.276,141.993z"/>
		<path id="XMLID_28541_" fill="#FFFFFF" d="M413.727,131.682c-0.021,0-0.04-0.001-0.062-0.003c-0.272-0.033-0.47-0.281-0.437-0.556
			c2.375-19.952,22.173-41.371,31.176-44.487c0.255-0.089,0.545,0.048,0.636,0.309c0.091,0.261-0.048,0.546-0.31,0.636
			c-8.805,3.047-28.176,24.062-30.51,43.66C414.191,131.496,413.976,131.682,413.727,131.682z"/>
		<path id="XMLID_28540_" fill="#FFFFFF" d="M422.297,109.646c-0.215,0-0.412-0.139-0.479-0.354
			c-2.108-6.91-2.842-13.66-2.849-13.727c-0.029-0.274,0.17-0.521,0.443-0.55c0.272-0.029,0.521,0.169,0.551,0.444
			c0.007,0.066,0.729,6.725,2.812,13.541c0.08,0.264-0.068,0.543-0.332,0.624C422.395,109.639,422.345,109.646,422.297,109.646z"/>
		<path id="XMLID_28539_" fill="#FFFFFF" d="M416.707,120.442c-0.19,0-0.375-0.111-0.457-0.298
			c-0.111-0.253,0.004-0.548,0.257-0.659c8.98-3.959,17.341-1.16,17.691-1.039c0.261,0.09,0.399,0.374,0.311,0.635
			c-0.089,0.261-0.373,0.402-0.636,0.31c-0.084-0.027-8.349-2.788-16.965,1.009C416.844,120.428,416.775,120.442,416.707,120.442z"
			/>
	</g>
</g>
<g id="Boxes">
	<g>
		<polygon id="XMLID_29161_" fill="#F5F5F5" points="282.892,21.108 258.52,7.037 234.157,21.107 258.52,35.179 		"/>
		<polygon id="XMLID_29159_" fill="#EBEBEB" points="258.52,63.321 282.892,49.25 282.892,21.108 258.52,35.178 		"/>
		<g id="XMLID_28506_">
			<path id="XMLID_28611_" fill="#FFFFFF" d="M263.216,53.986c-0.131,0-0.254-0.032-0.366-0.097
				c-0.29-0.167-0.457-0.536-0.457-1.011v-2.981c0-0.002,0-0.004,0-0.006V49.67l0.152,0.027l2.338-1.373v3.333
				c0,0.848-0.506,1.804-1.151,2.176C263.556,53.935,263.38,53.986,263.216,53.986z M262.768,50.117v2.761
				c0,0.337,0.1,0.587,0.271,0.687c0.171,0.099,0.368,0.023,0.507-0.056c0.521-0.302,0.964-1.15,0.964-1.852v-0.244h-0.866
				l-0.17-1.169L262.768,50.117z M263.966,51.037h0.542v-2.058l-1.396,0.819l0.69,0.124L263.966,51.037z"/>
		</g>
		<g id="XMLID_28505_">
			<path id="XMLID_28610_" fill="#FFFFFF" d="M263.638,56.363c-0.104,0-0.188-0.084-0.188-0.188V53.67
				c0-0.104,0.084-0.188,0.188-0.188c0.104,0,0.188,0.084,0.188,0.188v2.505C263.825,56.279,263.741,56.363,263.638,56.363z"/>
		</g>
		<g id="XMLID_28504_">
			<path id="XMLID_28609_" fill="#FFFFFF" d="M262.549,56.991c-0.064,0-0.128-0.034-0.162-0.094
				c-0.052-0.09-0.021-0.205,0.068-0.256l2.177-1.257c0.087-0.05,0.204-0.021,0.256,0.069c0.052,0.09,0.021,0.205-0.068,0.256
				l-2.177,1.257C262.613,56.983,262.581,56.991,262.549,56.991z"/>
		</g>
		<g id="XMLID_28502_">
			<path id="XMLID_28608_" fill="#FFFFFF" d="M270.306,52.677c-0.073,0-0.143-0.018-0.204-0.053
				c-0.143-0.082-0.225-0.246-0.225-0.451V51.66c0-0.104,0.084-0.188,0.188-0.188c0.104,0,0.188,0.084,0.188,0.188v0.514
				c0,0.077,0.021,0.117,0.035,0.125c0.014,0.008,0.059,0.005,0.124-0.032c0.164-0.097,0.348-0.469,0.348-0.847v-3.331
				c0-0.104,0.084-0.188,0.188-0.188c0.104,0,0.188,0.084,0.188,0.188v3.331c0,0.488-0.229,0.992-0.533,1.17
				C270.502,52.648,270.4,52.677,270.306,52.677z"/>
		</g>
		<g id="XMLID_28501_">
			<path id="XMLID_28605_" fill="#FFFFFF" d="M268.331,49.765V49.44c0-1.527,1.075-3.39,2.397-4.154
				c0.677-0.39,1.323-0.447,1.817-0.161c0.495,0.286,0.769,0.874,0.769,1.654v0.108L268.331,49.765z M271.852,45.32
				c-0.282,0-0.601,0.098-0.935,0.291c-1.124,0.649-2.056,2.159-2.193,3.494l4.215-2.433c-0.021-0.586-0.226-1.019-0.579-1.223
				C272.21,45.363,272.038,45.32,271.852,45.32z"/>
		</g>
		<g id="XMLID_28497_">
			<g id="XMLID_28499_">
				<path id="XMLID_28604_" fill="#FFFFFF" d="M277.039,48.839c-0.104,0-0.188-0.084-0.188-0.188v-6.38
					c0-0.104,0.084-0.188,0.188-0.188c0.104,0,0.188,0.084,0.188,0.188v6.38C277.227,48.755,277.143,48.839,277.039,48.839z"/>
			</g>
			<g id="XMLID_28498_">
				<path id="XMLID_28603_" fill="#FFFFFF" d="M276.49,43.726c-0.024,0-0.05-0.005-0.073-0.016c-0.097-0.041-0.14-0.151-0.099-0.247
					l0.667-1.541l0.744,0.859c0.068,0.078,0.061,0.196-0.019,0.264c-0.081,0.067-0.197,0.06-0.266-0.019l-0.354-0.408l-0.431,0.994
					C276.632,43.684,276.563,43.726,276.49,43.726z"/>
			</g>
		</g>
		<g id="XMLID_28494_">
			<g id="XMLID_28496_">
				<path id="XMLID_28602_" fill="#FFFFFF" d="M278.773,47.85c-0.104,0-0.188-0.084-0.188-0.188v-6.38
					c0-0.104,0.084-0.188,0.188-0.188c0.104,0,0.188,0.084,0.188,0.188v6.38C278.961,47.766,278.877,47.85,278.773,47.85z"/>
			</g>
			<g id="XMLID_28495_">
				<path id="XMLID_28601_" fill="#FFFFFF" d="M278.225,42.738c-0.024,0-0.05-0.005-0.074-0.016
					c-0.096-0.041-0.139-0.151-0.098-0.247l0.667-1.541l0.744,0.859c0.067,0.078,0.06,0.196-0.02,0.264
					c-0.08,0.067-0.196,0.06-0.265-0.019l-0.354-0.408l-0.432,0.994C278.366,42.695,278.297,42.738,278.225,42.738z"/>
			</g>
		</g>
		<polygon id="XMLID_29129_" fill="#E0E0E0" points="258.52,63.321 234.147,49.25 234.157,21.107 258.52,35.179 		"/>
		<polygon id="XMLID_28275_" fill="#FFFFFF" points="247.656,28.906 272.015,14.827 269.26,13.235 244.901,27.314 		"/>
		<path id="XMLID_29122_" fill="#27DEBF" d="M237.854,37.242l8.723,5.036c0.957,0.552,1.731,1.896,1.731,3v5.381
			c0,1.104-0.774,1.552-1.731,1l-8.724-5.036c-0.957-0.552-1.731-1.896-1.731-3v-5.381
			C236.122,37.137,236.897,36.689,237.854,37.242z"/>
		<g id="XMLID_28487_">
			<polygon id="XMLID_29120_" fill="#27DEBF" points="237.178,38.587 237.509,38.779 237.509,44.755 237.178,44.563 			"/>
		</g>
		<g id="XMLID_28486_">
			<polygon id="XMLID_29118_" fill="#27DEBF" points="238.527,39.366 239.098,39.702 239.098,45.678 238.527,45.342 			"/>
		</g>
		<g id="XMLID_28485_">
			<polygon id="XMLID_29116_" fill="#27DEBF" points="239.876,40.145 240.208,40.336 240.207,46.312 239.876,46.121 			"/>
		</g>
		<g id="XMLID_28484_">
			<polygon id="XMLID_29114_" fill="#27DEBF" points="240.893,40.721 241.557,41.114 241.556,47.091 240.893,46.697 			"/>
		</g>
		<g id="XMLID_28483_">
			<polygon id="XMLID_29112_" fill="#27DEBF" points="242.574,41.701 242.906,41.893 242.905,47.869 242.574,47.678 			"/>
		</g>
		<g id="XMLID_28482_">
			<polygon id="XMLID_29110_" fill="#27DEBF" points="243.545,42.25 244.255,42.671 244.254,48.647 243.545,48.226 			"/>
		</g>
		<g id="XMLID_28481_">
			<polygon id="XMLID_29108_" fill="#27DEBF" points="245.272,43.258 245.604,43.45 245.604,49.426 245.272,49.235 			"/>
		</g>
		<g id="XMLID_28480_">
			<polygon id="XMLID_29106_" fill="#27DEBF" points="246.042,43.696 246.208,43.792 246.208,49.769 246.042,49.673 			"/>
		</g>
		<g id="XMLID_28479_">
			<polygon id="XMLID_29104_" fill="#27DEBF" points="244.657,42.933 244.823,43.029 244.823,49.005 244.657,48.909 			"/>
		</g>
		<g id="XMLID_28478_">
			<polygon id="XMLID_29102_" fill="#27DEBF" points="241.939,41.341 242.105,41.437 242.105,47.413 241.939,47.317 			"/>
		</g>
		<g id="XMLID_28477_">
			<polygon id="XMLID_29100_" fill="#27DEBF" points="240.452,40.487 240.617,40.583 240.617,46.559 240.451,46.463 			"/>
		</g>
		<g id="XMLID_28476_">
			<polygon id="XMLID_29098_" fill="#27DEBF" points="239.382,39.897 239.548,39.993 239.548,45.969 239.382,45.873 			"/>
		</g>
		<g id="XMLID_28475_">
			<polygon id="XMLID_29096_" fill="#27DEBF" points="237.933,39.017 238.099,39.113 238.099,45.089 237.933,44.993 			"/>
		</g>
		<g id="XMLID_28474_">
			<polygon id="XMLID_29094_" fill="#27DEBF" points="246.622,44.037 246.953,44.229 246.953,50.205 246.621,50.013 			"/>
		</g>
		<polygon id="XMLID_29089_" fill="#F5F5F5" points="250.395,16.417 221.96,0 193.526,16.417 221.96,32.833 		"/>
		<polygon id="XMLID_28274_" fill="#FFFFFF" points="209.774,25.796 238.208,9.379 235.451,7.789 207.019,24.205 		"/>
		<polygon id="XMLID_29087_" fill="#EBEBEB" points="221.961,84.428 250.395,68.012 250.395,16.417 221.96,32.833 		"/>
		<path id="XMLID_28597_" fill="#FFFFFF" d="M226.656,75.093c-0.131,0-0.254-0.032-0.365-0.097c-0.29-0.167-0.457-0.536-0.457-1.011
			v-2.981c0-0.002,0-0.004,0-0.006v-0.221l0.151,0.027l2.338-1.373v3.333c0,0.848-0.506,1.804-1.15,2.176
			C226.996,75.042,226.82,75.093,226.656,75.093z M226.208,71.225v2.761c0,0.337,0.099,0.587,0.27,0.687
			c0.169,0.098,0.369,0.023,0.507-0.056c0.522-0.302,0.965-1.15,0.965-1.852V72.52h-0.865l-0.171-1.169L226.208,71.225z
			 M227.407,72.145h0.54v-2.058l-1.395,0.819l0.69,0.124L227.407,72.145z"/>
		<path id="XMLID_28596_" fill="#FFFFFF" d="M227.078,77.47c-0.104,0-0.188-0.084-0.188-0.188v-2.505
			c0-0.104,0.084-0.188,0.188-0.188c0.104,0,0.188,0.084,0.188,0.188v2.505C227.266,77.386,227.182,77.47,227.078,77.47z"/>
		<path id="XMLID_28595_" fill="#FFFFFF" d="M225.99,78.099c-0.064,0-0.129-0.034-0.162-0.094c-0.053-0.09-0.021-0.205,0.067-0.256
			l2.177-1.257c0.089-0.05,0.204-0.021,0.257,0.069c0.052,0.09,0.021,0.205-0.068,0.256l-2.177,1.257
			C226.055,78.09,226.022,78.099,225.99,78.099z"/>
		<path id="XMLID_28594_" fill="#FFFFFF" d="M233.747,73.785c-0.073,0-0.144-0.018-0.204-0.053
			c-0.144-0.082-0.226-0.246-0.226-0.451v-0.514c0-0.104,0.084-0.188,0.188-0.188c0.104,0,0.188,0.084,0.188,0.188v0.514
			c0,0.077,0.021,0.117,0.035,0.125c0.02,0.008,0.06,0.006,0.123-0.032c0.165-0.097,0.35-0.47,0.35-0.848v-3.331
			c0-0.104,0.084-0.188,0.188-0.188c0.104,0,0.188,0.084,0.188,0.188v3.331c0,0.488-0.229,0.991-0.533,1.171
			C233.942,73.756,233.842,73.785,233.747,73.785z"/>
		<path id="XMLID_28591_" fill="#FFFFFF" d="M231.772,70.872v-0.325c0-1.527,1.076-3.391,2.398-4.154
			c0.677-0.39,1.321-0.447,1.815-0.161c0.495,0.286,0.77,0.874,0.77,1.654v0.108L231.772,70.872z M235.293,66.428
			c-0.282,0-0.602,0.098-0.936,0.291c-1.124,0.648-2.055,2.159-2.192,3.494l4.214-2.433c-0.021-0.587-0.227-1.02-0.579-1.223
			C235.65,66.47,235.479,66.428,235.293,66.428z"/>
		<path id="XMLID_28590_" fill="#FFFFFF" d="M240.48,69.946c-0.104,0-0.188-0.084-0.188-0.188v-6.38
			c0-0.104,0.084-0.188,0.188-0.188c0.104,0,0.188,0.084,0.188,0.188v6.38C240.668,69.862,240.584,69.946,240.48,69.946z"/>
		<path id="XMLID_28589_" fill="#FFFFFF" d="M239.932,64.833c-0.024,0-0.05-0.005-0.074-0.016c-0.096-0.041-0.139-0.151-0.098-0.247
			l0.667-1.541l0.744,0.859c0.067,0.078,0.06,0.196-0.02,0.264c-0.08,0.067-0.196,0.059-0.265-0.019l-0.354-0.408l-0.432,0.994
			C240.073,64.792,240.004,64.833,239.932,64.833z"/>
		<path id="XMLID_28588_" fill="#FFFFFF" d="M242.214,68.958c-0.104,0-0.188-0.084-0.188-0.188v-6.38
			c0-0.104,0.084-0.188,0.188-0.188c0.104,0,0.188,0.084,0.188,0.188v6.38C242.401,68.874,242.317,68.958,242.214,68.958z"/>
		<path id="XMLID_28587_" fill="#FFFFFF" d="M241.666,63.845c-0.025,0-0.05-0.005-0.074-0.016c-0.096-0.041-0.139-0.151-0.098-0.247
			l0.667-1.541l0.743,0.859c0.068,0.078,0.061,0.196-0.019,0.264c-0.08,0.067-0.196,0.06-0.265-0.019l-0.354-0.408l-0.431,0.994
			C241.808,63.803,241.738,63.845,241.666,63.845z"/>
		<polygon id="XMLID_29057_" fill="#E0E0E0" points="221.96,84.429 193.527,68.012 193.526,16.417 221.96,32.833 		"/>
		<path id="XMLID_29050_" fill="#F5F5F5" d="M199.312,57.282l8.722,5.036c0.956,0.552,1.731,1.896,1.731,3v5.381
			c0,1.104-0.775,1.552-1.731,1l-8.724-5.036c-0.957-0.552-1.731-1.896-1.731-3v-5.381C197.58,57.178,198.355,56.73,199.312,57.282z
			"/>
		<polygon id="XMLID_29048_" fill="#E0E0E0" points="198.636,58.627 198.967,58.819 198.967,64.795 198.636,64.604 		"/>
		<polygon id="XMLID_29046_" fill="#E0E0E0" points="199.985,59.406 200.557,59.742 200.556,65.718 199.985,65.382 		"/>
		<polygon id="XMLID_29044_" fill="#E0E0E0" points="201.334,60.185 201.666,60.376 201.666,66.353 201.334,66.161 		"/>
		<polygon id="XMLID_29042_" fill="#E0E0E0" points="202.352,60.761 203.015,61.154 203.015,67.131 202.352,66.738 		"/>
		<polygon id="XMLID_29040_" fill="#E0E0E0" points="204.032,61.742 204.364,61.933 204.364,67.91 204.032,67.718 		"/>
		<polygon id="XMLID_29038_" fill="#E0E0E0" points="205.004,62.29 205.713,62.711 205.713,68.688 205.004,68.267 		"/>
		<polygon id="XMLID_29036_" fill="#E0E0E0" points="206.73,63.299 207.062,63.49 207.062,69.466 206.73,69.275 		"/>
		<polygon id="XMLID_29034_" fill="#E0E0E0" points="207.5,63.737 207.666,63.833 207.666,69.809 207.5,69.713 		"/>
		<polygon id="XMLID_29032_" fill="#E0E0E0" points="206.115,62.973 206.281,63.069 206.281,69.045 206.115,68.95 		"/>
		<polygon id="XMLID_29030_" fill="#E0E0E0" points="203.398,61.381 203.563,61.477 203.563,67.454 203.398,67.358 		"/>
		<polygon id="XMLID_29028_" fill="#E0E0E0" points="201.91,60.527 202.076,60.623 202.075,66.6 201.91,66.504 		"/>
		<polygon id="XMLID_29026_" fill="#E0E0E0" points="200.841,59.937 201.006,60.033 201.006,66.009 200.841,65.914 		"/>
		<polygon id="XMLID_29024_" fill="#E0E0E0" points="199.391,59.057 199.557,59.153 199.557,65.129 199.391,65.034 		"/>
		<polygon id="XMLID_29022_" fill="#E0E0E0" points="208.08,64.077 208.411,64.269 208.411,70.245 208.08,70.054 		"/>
		<g id="XMLID_28455_">
			<polygon id="XMLID_29055_" fill="#F0F0F0" points="207.019,30.863 209.774,32.454 209.774,25.795 207.019,24.205 			"/>
		</g>
	</g>
	<g>
		<g id="XMLID_28451_">
			<polygon id="XMLID_29017_" fill="#F5F5F5" points="165.093,70.357 144.782,58.631 116.348,75.047 136.659,86.774 			"/>
		</g>
		<g id="XMLID_28450_">
			<polygon id="XMLID_29015_" fill="#EBEBEB" points="136.659,133.678 165.093,117.261 165.093,70.357 136.659,86.773 			"/>
		</g>
		<g id="XMLID_28446_">
			<g id="XMLID_28449_">
				<path id="XMLID_28583_" fill="#FFFFFF" d="M141.354,124.342c-0.13,0-0.253-0.032-0.365-0.097
					c-0.289-0.167-0.456-0.536-0.456-1.011v-2.981c0-0.002,0-0.004,0-0.006v-0.221l0.151,0.027l2.338-1.373v3.333
					c0,0.848-0.506,1.804-1.15,2.176C141.693,124.291,141.519,124.342,141.354,124.342z M140.906,120.474v2.761
					c0,0.337,0.1,0.587,0.271,0.686c0.168,0.097,0.368,0.023,0.507-0.056c0.522-0.302,0.964-1.149,0.964-1.852v-0.244h-0.864
					l-0.172-1.17L140.906,120.474z M142.105,121.394h0.541v-2.058l-1.395,0.818l0.689,0.124L142.105,121.394z"/>
			</g>
			<g id="XMLID_28448_">
				<path id="XMLID_28582_" fill="#FFFFFF" d="M141.776,126.72c-0.104,0-0.188-0.084-0.188-0.188v-2.505
					c0-0.104,0.084-0.188,0.188-0.188c0.104,0,0.188,0.084,0.188,0.188v2.505C141.964,126.636,141.88,126.72,141.776,126.72z"/>
			</g>
			<g id="XMLID_28447_">
				<path id="XMLID_28581_" fill="#FFFFFF" d="M140.688,127.348c-0.063,0-0.128-0.034-0.162-0.094
					c-0.052-0.09-0.021-0.205,0.068-0.256l2.178-1.257c0.087-0.05,0.204-0.021,0.256,0.069c0.053,0.09,0.021,0.205-0.067,0.256
					l-2.178,1.257C140.752,127.34,140.72,127.348,140.688,127.348z"/>
			</g>
		</g>
		<g id="XMLID_28443_">
			<g id="XMLID_28445_">
				<path id="XMLID_28580_" fill="#FFFFFF" d="M148.445,123.034c-0.072,0-0.143-0.018-0.203-0.053
					c-0.144-0.081-0.226-0.246-0.226-0.45v-0.514c0-0.104,0.084-0.188,0.188-0.188c0.104,0,0.188,0.084,0.188,0.188v0.514
					c0,0.077,0.021,0.117,0.035,0.125c0.015,0.007,0.06,0.006,0.123-0.032c0.165-0.097,0.349-0.469,0.349-0.848v-3.331
					c0-0.104,0.084-0.188,0.188-0.188c0.104,0,0.188,0.084,0.188,0.188v3.331c0,0.488-0.229,0.992-0.533,1.171
					C148.641,123.005,148.54,123.034,148.445,123.034z"/>
			</g>
			<g id="XMLID_28444_">
				<path id="XMLID_28577_" fill="#FFFFFF" d="M146.471,120.121v-0.325c0-1.527,1.076-3.391,2.398-4.154
					c0.677-0.389,1.32-0.446,1.815-0.161c0.495,0.286,0.77,0.874,0.77,1.654v0.108L146.471,120.121z M149.991,115.677
					c-0.282,0-0.602,0.098-0.936,0.291c-1.124,0.648-2.055,2.159-2.193,3.494l4.215-2.433c-0.021-0.587-0.227-1.019-0.579-1.223
					C150.349,115.72,150.178,115.677,149.991,115.677z"/>
			</g>
		</g>
		<g id="XMLID_28436_">
			<g id="XMLID_28440_">
				<g id="XMLID_28442_">
					<path id="XMLID_28576_" fill="#FFFFFF" d="M155.179,119.196c-0.104,0-0.188-0.084-0.188-0.188v-6.38
						c0-0.104,0.084-0.188,0.188-0.188c0.104,0,0.188,0.084,0.188,0.188v6.38C155.366,119.112,155.282,119.196,155.179,119.196z"/>
				</g>
				<g id="XMLID_28441_">
					<path id="XMLID_28575_" fill="#FFFFFF" d="M154.63,114.083c-0.025,0-0.05-0.005-0.074-0.016
						c-0.096-0.041-0.139-0.151-0.098-0.247l0.667-1.541l0.744,0.859c0.067,0.078,0.06,0.196-0.02,0.264
						c-0.081,0.067-0.197,0.06-0.265-0.019l-0.354-0.408l-0.431,0.994C154.771,114.041,154.702,114.083,154.63,114.083z"/>
				</g>
			</g>
			<g id="XMLID_28437_">
				<g id="XMLID_28439_">
					<path id="XMLID_28574_" fill="#FFFFFF" d="M156.912,118.207c-0.104,0-0.188-0.084-0.188-0.188v-6.38
						c0-0.104,0.084-0.188,0.188-0.188c0.104,0,0.188,0.084,0.188,0.188v6.38C157.1,118.123,157.016,118.207,156.912,118.207z"/>
				</g>
				<g id="XMLID_28438_">
					<path id="XMLID_28573_" fill="#FFFFFF" d="M156.364,113.094c-0.024,0-0.05-0.005-0.073-0.016
						c-0.097-0.041-0.14-0.151-0.099-0.247l0.667-1.541l0.744,0.859c0.068,0.078,0.061,0.196-0.019,0.264
						c-0.08,0.067-0.197,0.06-0.266-0.019l-0.354-0.408l-0.431,0.994C156.506,113.052,156.437,113.094,156.364,113.094z"/>
				</g>
			</g>
		</g>
		<g id="XMLID_28435_">
			<polygon id="XMLID_28985_" fill="#E0E0E0" points="136.659,133.678 116.35,121.952 116.348,75.047 136.659,86.774 			"/>
		</g>
		<g id="XMLID_28434_">
			<polygon id="XMLID_28983_" fill="#F5F5F5" points="125.779,87.151 128.534,88.742 128.534,82.083 125.779,80.492 			"/>
		</g>
		<g id="XMLID_28433_">
			<polygon id="XMLID_28273_" fill="#FFFFFF" points="128.534,82.083 156.968,65.667 154.211,64.077 125.779,80.492 			"/>
		</g>
		<g id="XMLID_28343_">
			<polygon id="XMLID_28977_" fill="#F5F5F5" points="128.534,110.226 91.976,89.119 55.417,110.226 91.976,131.333 			"/>
		</g>
		<g id="XMLID_28342_">
			<polygon id="XMLID_28975_" fill="#EBEBEB" points="91.976,159.476 128.535,138.368 128.535,110.226 91.976,131.333 			"/>
		</g>
		<g id="XMLID_28327_">
			<g id="XMLID_28326_">
				<path id="XMLID_28569_" fill="#FFFFFF" d="M96.672,150.141c-0.131,0-0.254-0.032-0.366-0.097
					c-0.29-0.168-0.457-0.537-0.457-1.012v-2.981c0-0.002,0-0.004,0-0.006v-0.221l0.152,0.027l2.338-1.373v3.332
					c0,0.848-0.506,1.804-1.151,2.177C97.012,150.089,96.836,150.141,96.672,150.141z M96.224,146.271v2.761
					c0,0.337,0.099,0.588,0.271,0.687c0.17,0.098,0.368,0.022,0.507-0.056c0.521-0.303,0.964-1.15,0.964-1.853v-0.244H97.1
					l-0.171-1.169L96.224,146.271z M97.423,147.191h0.541v-2.059l-1.396,0.819l0.69,0.123L97.423,147.191z"/>
			</g>
			<g id="XMLID_28329_">
				<path id="XMLID_28568_" fill="#FFFFFF" d="M97.094,152.518c-0.104,0-0.188-0.084-0.188-0.188v-2.505
					c0-0.104,0.085-0.188,0.188-0.188c0.104,0,0.188,0.084,0.188,0.188v2.505C97.281,152.434,97.197,152.518,97.094,152.518z"/>
			</g>
			<g id="XMLID_28357_">
				<path id="XMLID_28567_" fill="#FFFFFF" d="M96.005,153.146c-0.064,0-0.128-0.033-0.162-0.094
					c-0.052-0.09-0.021-0.204,0.068-0.256l2.178-1.257c0.088-0.054,0.204-0.023,0.256,0.068c0.052,0.09,0.021,0.204-0.068,0.256
					l-2.178,1.257C96.069,153.138,96.037,153.146,96.005,153.146z"/>
			</g>
		</g>
		<g id="XMLID_28339_">
			<g id="XMLID_28341_">
				<path id="XMLID_28566_" fill="#FFFFFF" d="M103.763,148.832c-0.073,0-0.143-0.018-0.205-0.053
					c-0.143-0.082-0.225-0.246-0.225-0.451v-0.514c0-0.104,0.084-0.188,0.188-0.188c0.104,0,0.188,0.084,0.188,0.188v0.514
					c0,0.077,0.021,0.117,0.036,0.126c0.015,0.008,0.059,0.005,0.122-0.032c0.165-0.098,0.349-0.47,0.349-0.848v-3.331
					c0-0.104,0.084-0.188,0.188-0.188c0.104,0,0.188,0.084,0.188,0.188v3.331c0,0.488-0.229,0.991-0.532,1.17
					C103.958,148.803,103.857,148.832,103.763,148.832z"/>
			</g>
			<g id="XMLID_28340_">
				<path id="XMLID_28563_" fill="#FFFFFF" d="M101.788,145.92v-0.325c0-1.527,1.074-3.391,2.396-4.154
					c0.677-0.39,1.323-0.447,1.817-0.161c0.496,0.286,0.769,0.874,0.769,1.654v0.108L101.788,145.92z M105.309,141.475
					c-0.283,0-0.602,0.098-0.936,0.291c-1.123,0.648-2.055,2.158-2.192,3.494l4.214-2.434c-0.021-0.586-0.226-1.018-0.579-1.222
					C105.666,141.518,105.495,141.475,105.309,141.475z"/>
			</g>
		</g>
		<g id="XMLID_28332_">
			<g id="XMLID_28336_">
				<g id="XMLID_28338_">
					<path id="XMLID_28562_" fill="#FFFFFF" d="M110.495,144.993c-0.104,0-0.188-0.084-0.188-0.188v-6.38
						c0-0.104,0.084-0.188,0.188-0.188c0.104,0,0.188,0.084,0.188,0.188v6.38C110.683,144.909,110.599,144.993,110.495,144.993z"/>
				</g>
				<g id="XMLID_28337_">
					<path id="XMLID_28561_" fill="#FFFFFF" d="M109.947,139.881c-0.024,0-0.05-0.005-0.073-0.016
						c-0.097-0.041-0.14-0.151-0.099-0.247l0.667-1.541l0.744,0.859c0.068,0.078,0.061,0.196-0.019,0.264
						c-0.08,0.067-0.197,0.059-0.266-0.019l-0.354-0.408l-0.431,0.994C110.089,139.838,110.02,139.881,109.947,139.881z"/>
				</g>
			</g>
			<g id="XMLID_28333_">
				<g id="XMLID_28335_">
					<path id="XMLID_28560_" fill="#FFFFFF" d="M112.229,144.005c-0.104,0-0.188-0.084-0.188-0.188v-6.38
						c0-0.104,0.084-0.188,0.188-0.188c0.104,0,0.188,0.084,0.188,0.188v6.38C112.417,143.921,112.333,144.005,112.229,144.005z"/>
				</g>
				<g id="XMLID_28334_">
					<path id="XMLID_28559_" fill="#FFFFFF" d="M111.681,138.892c-0.025,0-0.05-0.005-0.074-0.016
						c-0.096-0.041-0.139-0.151-0.098-0.247l0.667-1.541l0.744,0.859c0.067,0.078,0.06,0.196-0.02,0.264
						c-0.08,0.067-0.196,0.06-0.265-0.019l-0.354-0.408l-0.432,0.994C111.822,138.85,111.753,138.892,111.681,138.892z"/>
				</g>
			</g>
		</g>
		<g id="XMLID_28331_">
			<polygon id="XMLID_28945_" fill="#E0E0E0" points="91.976,159.476 55.417,138.369 55.417,110.226 91.976,131.333 			"/>
		</g>
		<g id="XMLID_28330_">
			<polygon id="XMLID_28943_" fill="#F5F5F5" points="72.319,126.643 75.075,128.233 75.075,121.575 72.319,119.984 			"/>
		</g>
		<g id="XMLID_28328_">
			<polygon id="XMLID_28272_" fill="#FFFFFF" points="75.075,121.575 111.633,100.468 108.877,98.877 72.319,119.984 			"/>
		</g>
		<path id="XMLID_28938_" fill="#F5F5F5" d="M61.212,127.642l8.722,5.036c0.957,0.553,1.732,1.896,1.732,3v5.381
			c0,1.104-0.775,1.552-1.732,1l-8.723-5.036c-0.957-0.552-1.732-1.896-1.732-3v-5.381C59.48,127.538,60.255,127.09,61.212,127.642z
			"/>
		<g id="XMLID_28381_">
			<polygon id="XMLID_28936_" fill="#E0E0E0" points="60.536,128.987 60.868,129.179 60.867,135.155 60.536,134.964 			"/>
		</g>
		<g id="XMLID_28380_">
			<polygon id="XMLID_28934_" fill="#E0E0E0" points="61.885,129.766 62.457,130.102 62.456,136.078 61.885,135.742 			"/>
		</g>
		<g id="XMLID_28379_">
			<polygon id="XMLID_28932_" fill="#E0E0E0" points="63.234,130.544 63.566,130.736 63.565,136.712 63.234,136.521 			"/>
		</g>
		<g id="XMLID_28378_">
			<polygon id="XMLID_28930_" fill="#E0E0E0" points="64.251,131.121 64.915,131.514 64.915,137.491 64.251,137.098 			"/>
		</g>
		<g id="XMLID_28377_">
			<polygon id="XMLID_28928_" fill="#E0E0E0" points="65.933,132.102 66.264,132.293 66.264,138.27 65.932,138.078 			"/>
		</g>
		<g id="XMLID_28376_">
			<polygon id="XMLID_28926_" fill="#E0E0E0" points="66.904,132.65 67.613,133.071 67.613,139.048 66.904,138.626 			"/>
		</g>
		<g id="XMLID_28375_">
			<polygon id="XMLID_28924_" fill="#E0E0E0" points="68.63,133.659 68.962,133.85 68.962,139.826 68.63,139.635 			"/>
		</g>
		<g id="XMLID_28361_">
			<polygon id="XMLID_28922_" fill="#E0E0E0" points="69.4,134.097 69.566,134.192 69.566,140.168 69.4,140.073 			"/>
		</g>
		<g id="XMLID_28362_">
			<polygon id="XMLID_28920_" fill="#E0E0E0" points="68.016,133.333 68.181,133.429 68.181,139.405 68.016,139.31 			"/>
		</g>
		<g id="XMLID_28363_">
			<polygon id="XMLID_28918_" fill="#E0E0E0" points="65.298,131.741 65.464,131.837 65.463,137.813 65.298,137.718 			"/>
		</g>
		<g id="XMLID_28364_">
			<polygon id="XMLID_28916_" fill="#E0E0E0" points="63.81,130.887 63.976,130.983 63.975,136.959 63.81,136.864 			"/>
		</g>
		<g id="XMLID_28365_">
			<polygon id="XMLID_28914_" fill="#E0E0E0" points="62.741,130.297 62.906,130.393 62.906,136.369 62.741,136.273 			"/>
		</g>
		<g id="XMLID_28366_">
			<polygon id="XMLID_28912_" fill="#E0E0E0" points="61.292,129.417 61.457,129.513 61.457,135.489 61.292,135.394 			"/>
		</g>
		<g id="XMLID_28374_">
			<polygon id="XMLID_28910_" fill="#E0E0E0" points="69.979,134.437 70.311,134.628 70.311,140.605 69.979,140.414 			"/>
		</g>
		<g id="XMLID_28412_">
			<polygon id="XMLID_28906_" fill="#F5F5F5" points="120.41,53.94 91.976,37.524 63.542,53.94 91.976,70.357 			"/>
		</g>
		<g id="XMLID_28411_">
			<polygon id="XMLID_28904_" fill="#EBEBEB" points="91.976,126.642 120.411,110.226 120.411,53.94 91.976,70.357 			"/>
		</g>
		<g id="XMLID_28407_">
			<g id="XMLID_28410_">
				<path id="XMLID_28555_" fill="#FFFFFF" d="M96.672,117.307c-0.131,0-0.254-0.032-0.366-0.097
					c-0.29-0.167-0.457-0.536-0.457-1.011v-2.981c0-0.002,0-0.004,0-0.006v-0.221l0.152,0.027l2.338-1.373v3.333
					c0,0.847-0.506,1.803-1.151,2.176C97.012,117.256,96.836,117.307,96.672,117.307z M96.224,113.438v2.761
					c0,0.337,0.099,0.587,0.271,0.687c0.17,0.099,0.368,0.023,0.507-0.056c0.521-0.302,0.964-1.15,0.964-1.852v-0.245H97.1
					l-0.171-1.169L96.224,113.438z M97.423,114.358h0.541V112.3l-1.396,0.819l0.69,0.124L97.423,114.358z"/>
			</g>
			<g id="XMLID_28409_">
				<path id="XMLID_28554_" fill="#FFFFFF" d="M97.094,119.685c-0.104,0-0.188-0.084-0.188-0.188v-2.505
					c0-0.104,0.085-0.188,0.188-0.188c0.104,0,0.188,0.084,0.188,0.188v2.505C97.281,119.601,97.197,119.685,97.094,119.685z"/>
			</g>
			<g id="XMLID_28408_">
				<path id="XMLID_28553_" fill="#FFFFFF" d="M96.005,120.313c-0.064,0-0.128-0.034-0.162-0.094
					c-0.052-0.09-0.021-0.205,0.068-0.256l2.178-1.257c0.088-0.051,0.204-0.021,0.256,0.069c0.052,0.09,0.021,0.205-0.068,0.256
					l-2.178,1.257C96.069,120.305,96.037,120.313,96.005,120.313z"/>
			</g>
		</g>
		<g id="XMLID_28404_">
			<g id="XMLID_28406_">
				<path id="XMLID_28552_" fill="#FFFFFF" d="M103.763,115.999c-0.073,0-0.144-0.018-0.205-0.053
					c-0.143-0.082-0.225-0.246-0.225-0.45v-0.514c0-0.104,0.084-0.188,0.188-0.188c0.104,0,0.188,0.084,0.188,0.188v0.514
					c0,0.077,0.021,0.117,0.035,0.125c0.018,0.009,0.06,0.006,0.124-0.032c0.164-0.097,0.348-0.469,0.348-0.848v-3.331
					c0-0.104,0.084-0.188,0.188-0.188c0.104,0,0.188,0.084,0.188,0.188v3.331c0,0.489-0.229,0.992-0.533,1.171
					C103.958,115.97,103.857,115.999,103.763,115.999z"/>
			</g>
			<g id="XMLID_28405_">
				<path id="XMLID_28549_" fill="#FFFFFF" d="M101.788,113.086v-0.325c0-1.527,1.074-3.391,2.396-4.154
					c0.677-0.39,1.323-0.447,1.817-0.161c0.496,0.286,0.769,0.874,0.769,1.654v0.108L101.788,113.086z M105.309,108.642
					c-0.283,0-0.602,0.098-0.936,0.291c-1.123,0.648-2.055,2.159-2.192,3.494l4.214-2.433c-0.021-0.586-0.226-1.018-0.579-1.222
					C105.666,108.685,105.495,108.642,105.309,108.642z"/>
			</g>
		</g>
		<g id="XMLID_28397_">
			<g id="XMLID_28401_">
				<g id="XMLID_28403_">
					<path id="XMLID_28548_" fill="#FFFFFF" d="M110.495,112.16c-0.104,0-0.188-0.084-0.188-0.188v-6.38
						c0-0.104,0.084-0.188,0.188-0.188c0.104,0,0.188,0.084,0.188,0.188v6.38C110.683,112.076,110.599,112.16,110.495,112.16z"/>
				</g>
				<g id="XMLID_28402_">
					<path id="XMLID_28547_" fill="#FFFFFF" d="M109.947,107.048c-0.024,0-0.05-0.005-0.073-0.016
						c-0.097-0.041-0.14-0.151-0.099-0.247l0.667-1.541l0.744,0.859c0.068,0.078,0.061,0.196-0.019,0.264
						c-0.08,0.067-0.197,0.059-0.266-0.019l-0.354-0.408l-0.431,0.994C110.089,107.005,110.02,107.048,109.947,107.048z"/>
				</g>
			</g>
			<g id="XMLID_28398_">
				<g id="XMLID_28400_">
					<path id="XMLID_28546_" fill="#FFFFFF" d="M112.229,111.171c-0.104,0-0.188-0.084-0.188-0.188v-6.38
						c0-0.104,0.084-0.188,0.188-0.188c0.104,0,0.188,0.084,0.188,0.188v6.38C112.417,111.087,112.333,111.171,112.229,111.171z"/>
				</g>
				<g id="XMLID_28399_">
					<path id="XMLID_28545_" fill="#FFFFFF" d="M111.681,106.059c-0.025,0-0.05-0.005-0.074-0.016
						c-0.096-0.041-0.139-0.151-0.098-0.247l0.667-1.541l0.744,0.859c0.067,0.078,0.06,0.196-0.02,0.264
						c-0.08,0.067-0.196,0.059-0.265-0.019l-0.354-0.408l-0.432,0.994C111.822,106.017,111.753,106.059,111.681,106.059z"/>
				</g>
			</g>
		</g>
		<g id="XMLID_28396_">
			<polygon id="XMLID_28874_" fill="#E0E0E0" points="91.976,126.643 63.542,110.226 63.542,53.94 91.976,70.357 			"/>
		</g>
		<g id="XMLID_28395_">
			<polygon id="XMLID_28872_" fill="#F5F5F5" points="77.034,68.387 79.79,69.978 79.79,63.319 77.034,61.729 			"/>
		</g>
		<g id="XMLID_28394_">
			<polygon id="XMLID_14729_" fill="#FFFFFF" points="79.79,63.32 108.224,46.903 105.467,45.313 77.034,61.729 			"/>
		</g>
		<g id="XMLID_28392_">
			<path id="XMLID_28867_" fill="#F5F5F5" d="M69.327,99.497l8.722,5.036c0.957,0.552,1.731,1.896,1.731,3v5.381
				c0,1.104-0.774,1.552-1.731,1l-8.723-5.036c-0.957-0.552-1.732-1.896-1.732-3v-5.381C67.595,99.392,68.371,98.944,69.327,99.497z
				"/>
		</g>
		<g id="XMLID_28369_">
			<g id="XMLID_28391_">
				<polygon id="XMLID_28865_" fill="#E0E0E0" points="68.651,100.841 68.983,101.033 68.983,107.009 68.651,106.818 				"/>
			</g>
			<g id="XMLID_28390_">
				<polygon id="XMLID_28863_" fill="#E0E0E0" points="70,101.62 70.572,101.956 70.572,107.933 70,107.597 				"/>
			</g>
			<g id="XMLID_28389_">
				<polygon id="XMLID_28861_" fill="#E0E0E0" points="71.35,102.398 71.681,102.59 71.681,108.566 71.35,108.375 				"/>
			</g>
			<g id="XMLID_28388_">
				<polygon id="XMLID_28859_" fill="#E0E0E0" points="72.367,102.975 73.03,103.369 73.03,109.345 72.367,108.952 				"/>
			</g>
			<g id="XMLID_28387_">
				<polygon id="XMLID_28857_" fill="#E0E0E0" points="74.048,103.956 74.379,104.147 74.379,110.124 74.048,109.932 				"/>
			</g>
			<g id="XMLID_28386_">
				<polygon id="XMLID_28855_" fill="#E0E0E0" points="75.019,104.504 75.729,104.926 75.728,110.902 75.019,110.48 				"/>
			</g>
			<g id="XMLID_28385_">
				<polygon id="XMLID_28853_" fill="#E0E0E0" points="76.746,105.513 77.077,105.704 77.077,111.681 76.746,111.489 				"/>
			</g>
			<g id="XMLID_28384_">
				<polygon id="XMLID_28851_" fill="#E0E0E0" points="77.516,105.951 77.681,106.046 77.681,112.023 77.516,111.927 				"/>
			</g>
			<g id="XMLID_28383_">
				<polygon id="XMLID_28849_" fill="#E0E0E0" points="76.131,105.187 76.297,105.283 76.296,111.259 76.131,111.164 				"/>
			</g>
			<g id="XMLID_28382_">
				<polygon id="XMLID_28847_" fill="#E0E0E0" points="73.414,103.595 73.579,103.691 73.579,109.667 73.413,109.572 				"/>
			</g>
			<g id="XMLID_28373_">
				<polygon id="XMLID_28845_" fill="#E0E0E0" points="71.925,102.741 72.091,102.837 72.091,108.813 71.925,108.718 				"/>
			</g>
			<g id="XMLID_28372_">
				<polygon id="XMLID_28843_" fill="#E0E0E0" points="70.856,102.151 71.022,102.247 71.021,108.223 70.856,108.127 				"/>
			</g>
			<g id="XMLID_28371_">
				<polygon id="XMLID_28841_" fill="#E0E0E0" points="69.407,101.271 69.572,101.367 69.572,107.343 69.407,107.248 				"/>
			</g>
			<g id="XMLID_28370_">
				<polygon id="XMLID_28839_" fill="#E0E0E0" points="78.095,106.291 78.426,106.482 78.426,112.459 78.095,112.268 				"/>
			</g>
		</g>
	</g>
</g>
<g id="Device">
	<g>
		<path id="XMLID_28807_" fill="#455A64" d="M63.81,208.88l109.136,63.006c2.392,1.382,6.27,1.382,8.66,0l239.13-138.05
			c2.393-1.38,2.393-3.62,0-5L311.6,65.829c-2.393-1.381-6.269-1.381-8.66,0L63.81,203.88C61.419,205.262,61.419,207.5,63.81,208.88
			z"/>
	</g>
	<path id="XMLID_28805_" fill="#263238" d="M122.795,238.148c3.322,1.918,8.707,1.918,12.029,0c3.321-1.916,3.321-5.024,0-6.942
		c-3.322-1.919-8.707-1.919-12.029,0C119.474,233.124,119.474,236.232,122.795,238.148z"/>
	<path id="XMLID_28803_" fill="#37474F" d="M174.946,271.886L65.81,208.88c-2.138-1.233-2.358-3.151-0.673-4.532
		c-2.069,1.569-3.657,4.538-3.657,7.032v4.072c0,2.762,1.939,6.119,4.33,7.5l109.136,63.005c1.195,0.689,2.764,1.036,4.33,1.036
		v-14.071C177.709,272.922,176.142,272.576,174.946,271.886z"/>
	<g>
		<path id="XMLID_28801_" fill="#263238" d="M420.734,147.905c2.394-1.38,4.331-4.738,4.331-7.499v-4.072
			c0-2.496-1.59-5.466-3.661-7.036c1.691,1.38,1.474,3.301-0.668,4.537l-239.13,138.05c-1.195,0.69-2.763,1.036-4.33,1.036v14.071
			c1.567,0,3.135-0.346,4.33-1.036L420.734,147.905z"/>
	</g>
	<path id="XMLID_14728_" fill="#FFFFFF" d="M190.93,258.83L86.467,198.489c-1.435-0.829-1.435-2.173,0-3L288.391,78.884
		c1.437-0.829,3.762-0.829,5.196-0.001l104.5,60.331c1.435,0.829,1.435,2.172,0,3L196.126,258.83
		C194.691,259.659,192.364,259.659,190.93,258.83z"/>
	<polygon id="XMLID_28797_" fill="#E83445" points="153.588,229.768 165.774,222.73 161.712,220.386 149.526,227.421 	"/>
	<polygon id="XMLID_28785_" fill="#DD2846" points="295.08,140.714 307.266,133.678 303.204,131.333 291.018,138.369 	"/>
	<polygon id="XMLID_28783_" fill="#DD2846" points="319.451,126.643 331.639,119.607 327.575,117.262 315.391,124.297 	"/>
	<g>
		<path id="XMLID_28778_" fill="#263238" d="M358.57,101.99c0.841,0.486,2.205,0.485,3.046,0c0.842-0.485,0.842-1.273,0-1.759
			c-0.841-0.485-2.205-0.485-3.046,0C357.729,100.717,357.729,101.505,358.57,101.99z"/>
		<path id="XMLID_28776_" fill="#263238" d="M363.438,115.805c1.683,0.971,4.41,0.971,6.093,0c1.683-0.972,1.683-2.547,0-3.518
			c-1.683-0.972-4.41-0.972-6.093,0C361.756,113.258,361.756,114.833,363.438,115.805z"/>
		<path id="XMLID_28774_" fill="#263238" d="M359.143,109.683c1.122-0.648,1.063-1.731-0.135-2.422L338.966,95.69
			c-1.194-0.69-3.073-0.726-4.195-0.078c-1.121,0.648-1.062,1.732,0.133,2.423l20.044,11.571
			C356.143,110.296,358.021,110.331,359.143,109.683z"/>
	</g>
	<line id="XMLID_4_" fill="none" x1="308.203" y1="164.333" x2="296.018" y2="171.368"/>
	<polygon id="XMLID_5_" fill="#DD2846" points="272.241,154.831 284.427,147.796 280.365,145.45 268.179,152.485 	"/>
	<polygon id="XMLID_6_" fill="#DD2846" points="250.104,169.023 262.29,161.988 258.229,159.643 246.042,166.678 	"/>
	<polygon id="XMLID_7_" fill="#DD2846" points="224.262,186.984 236.447,179.95 232.386,177.604 220.199,184.641 	"/>
	<polygon id="XMLID_8_" fill="#DD2846" points="196.495,204.813 208.681,197.777 204.619,195.432 192.433,202.467 	"/>
	<polygon id="XMLID_9_" fill="#DD2846" points="175.215,217.452 187.4,210.417 183.339,208.07 171.152,215.105 	"/>
</g>
<g id="Locator">
	<g>
		<path id="XMLID_28646_" fill="#F94E5B" d="M325.04,62.759l0.677-0.39c-0.438,1.529-0.677,3.279-0.677,5.236v2.441
			c0,8.754,10.514,31.135,14.374,39.06c0.403,0.829-4.908,6.477-4.908,6.477l6.31-3.643c0,0,15.775-12.956,15.775-23.679V85.82
			c0-10.724-7.063-23.494-15.774-28.524c-4.393-2.536-8.364-2.617-11.225-0.703l-0.001-0.001l-5.992,3.442L325.04,62.759z
			 M332.929,70.956c0-5.03,3.531-7.068,7.888-4.554c-0.354,3.228,5.542,13.292,7.887,13.661c0,5.03-3.53,7.069-7.888,4.554
			C336.46,82.103,332.929,75.986,332.929,70.956z"/>
		<path id="XMLID_28323_" fill="#BA4247" d="M318.511,73.95c0.177,10.722,16.462,41.629,16.462,41.629s15.56-13.214,15.383-23.936
			l-0.04-2.44c-0.177-10.722-7.448-23.375-16.241-28.261c-8.794-4.886-15.778-0.154-15.604,10.568L318.511,73.95z M326.411,74.73
			c-0.082-5.029,3.415-7.125,7.813-4.683c4.396,2.442,8.028,8.5,8.11,13.529c0.082,5.029-3.414,7.126-7.812,4.683
			C330.126,85.817,326.494,79.76,326.411,74.73z"/>
		<path id="XMLID_1_" opacity="0.1" enable-background="new    " d="M318.511,73.95c0.177,10.722,16.462,41.629,16.462,41.629
			s15.56-13.214,15.383-23.936l-0.04-2.44c-0.177-10.722-7.448-23.375-16.241-28.261c-8.794-4.886-15.778-0.154-15.604,10.568
			L318.511,73.95z M326.411,74.73c-0.082-5.029,3.415-7.125,7.813-4.683c4.396,2.442,8.028,8.5,8.11,13.529
			c0.082,5.029-3.414,7.126-7.812,4.683C330.126,85.817,326.494,79.76,326.411,74.73z"/>
	</g>
</g>
<g id="Shadow">
</g>
<g id="Character">
</g>
</svg>
