<?xml version="1.0" encoding="utf-8"?>
<!-- Generator: Adobe Illustrator 16.0.3, SVG Export Plug-In . SVG Version: 6.00 Build 0)  -->
<!DOCTYPE svg PUBLIC "-//W3C//DTD SVG 1.1//EN" "http://www.w3.org/Graphics/SVG/1.1/DTD/svg11.dtd">
<svg version="1.1" xmlns="http://www.w3.org/2000/svg" xmlns:xlink="http://www.w3.org/1999/xlink" x="0px" y="0px" width="750px"
	 height="290px" viewBox="0 0 750 290" enable-background="new 0 0 750 290" xml:space="preserve">
<g id="Background" display="none">
	<rect y="-8" display="inline" fill="#80C6CE" width="750" height="500"/>
	<g display="inline">
		<path fill="#87D8D5" d="M750,492V218.65c-99.508,31.091-203.756,47.034-308.013,46.834
			c-111.478-0.215-222.642-18.613-334.001-13.461C71.681,253.703,35.422,258.255,0,266.473V492H750z"/>
	</g>
</g>
<g id="Objects">
	<g>
		<g display="none">
			<g display="inline">
				<path fill="#835844" d="M181.021,99.282L64.151,153.719c0,0-7.817,4.142-14.108-2.65c-6.292-6.793-7.245-6.603-3.622-17.66
					c3.622-11.058,26.882-69.97,26.882-69.97s0.763-6.673,25.167-16.206C122.872,37.701,202.184,5.29,202.184,5.29
					s4.576-3.051,10.104,2.479c5.529,5.529,11.058,11.439,6.292,21.163c-4.767,9.723-29.933,63.106-29.933,63.106
					S187.348,96.334,181.021,99.282z"/>
				<path fill="#4C3329" d="M59.957,154.97c0,0-6.673-0.398,0-14.316c6.673-13.917,27.073-63.869,27.073-63.869
					s0.953-6.482,15.252-12.202c14.299-5.719,106.575-42.897,106.575-42.897s6.774-3.243,9.151-1.334s-4.385,14.108-4.385,14.108
					l-31.317,64.165C182.307,98.624,66.629,152.318,59.957,154.97z"/>
				<path fill="#35241D" d="M102.282,64.583c-14.299,5.72-15.252,12.202-15.252,12.202s-20.4,49.951-27.073,63.869
					c-6.673,13.918,0,14.316,0,14.316c5.192-2.063,76.367-35.024,107.706-49.553l33.153-80.491
					C178.051,34.096,113.998,59.896,102.282,64.583z"/>
				<path fill="#E1C37D" d="M53.474,154.052c-0.125,0-0.248-0.075-0.304-0.193c-0.032-0.067-0.085-0.237-0.085-0.619
					c0-0.643,0.152-1.608,0.441-2.793c0.043-0.173,0.216-0.283,0.392-0.238c0.174,0.042,0.281,0.218,0.239,0.393
					c-0.349,1.434-0.422,2.226-0.422,2.639c0,0.263,0.03,0.359,0.031,0.361c0.077,0.162,0.004,0.345-0.158,0.421
					C53.563,154.043,53.519,154.052,53.474,154.052z M54.738,147.736c-0.033,0-0.066-0.005-0.1-0.016
					c-0.17-0.055-0.264-0.238-0.208-0.408c0.303-0.938,0.662-1.972,1.065-3.074c0.061-0.169,0.249-0.255,0.416-0.193
					c0.168,0.062,0.254,0.248,0.193,0.416c-0.401,1.094-0.756,2.121-1.057,3.051C55.002,147.649,54.875,147.736,54.738,147.736z
					 M56.954,141.645c-0.04,0-0.08-0.007-0.119-0.023c-0.167-0.065-0.249-0.254-0.183-0.42l0.039-0.097
					c0.308-0.778,0.704-1.765,1.175-2.927c0.067-0.167,0.259-0.245,0.422-0.179c0.166,0.067,0.246,0.256,0.179,0.422
					c-0.47,1.16-0.867,2.146-1.174,2.924l-0.038,0.093C57.205,141.566,57.083,141.645,56.954,141.645z M59.394,135.61
					c-0.041,0-0.083-0.008-0.123-0.025c-0.166-0.067-0.245-0.257-0.177-0.423l1.234-3.01c0.068-0.166,0.256-0.244,0.423-0.177
					c0.166,0.068,0.245,0.258,0.177,0.423l-1.234,3.01C59.642,135.534,59.522,135.61,59.394,135.61z M61.867,129.592
					c-0.042,0-0.083-0.008-0.124-0.024c-0.166-0.068-0.245-0.258-0.177-0.423l1.241-3.006c0.068-0.167,0.256-0.244,0.423-0.175
					c0.166,0.068,0.244,0.258,0.176,0.423l-1.24,3.005C62.115,129.517,61.994,129.592,61.867,129.592z M64.349,123.583
					c-0.041,0-0.083-0.008-0.124-0.025c-0.165-0.068-0.244-0.258-0.175-0.423l1.245-3.003c0.069-0.165,0.258-0.244,0.424-0.175
					c0.166,0.069,0.244,0.259,0.175,0.424l-1.244,3.002C64.597,123.507,64.477,123.583,64.349,123.583z M66.838,117.579
					c-0.042,0-0.084-0.008-0.124-0.025c-0.166-0.069-0.244-0.258-0.175-0.423l1.246-3.002c0.068-0.166,0.257-0.243,0.424-0.175
					c0.165,0.068,0.244,0.258,0.175,0.424l-1.246,3.001C67.086,117.503,66.965,117.579,66.838,117.579z M69.331,111.578
					c-0.042,0-0.083-0.009-0.125-0.025c-0.166-0.069-0.244-0.259-0.175-0.424l1.248-3c0.069-0.166,0.261-0.243,0.424-0.175
					c0.165,0.068,0.243,0.258,0.175,0.424l-1.248,3C69.579,111.502,69.458,111.578,69.331,111.578z M71.828,105.577
					c-0.042,0-0.083-0.008-0.125-0.025c-0.165-0.069-0.243-0.259-0.175-0.424l1.25-3.001c0.069-0.166,0.258-0.243,0.424-0.175
					c0.166,0.069,0.244,0.259,0.175,0.424l-1.25,3C72.075,105.501,71.955,105.577,71.828,105.577z M74.328,99.577
					c-0.042,0-0.084-0.008-0.125-0.025c-0.165-0.069-0.243-0.259-0.175-0.424l1.251-3c0.069-0.166,0.258-0.243,0.424-0.175
					c0.166,0.069,0.244,0.259,0.175,0.424l-1.25,3C74.575,99.501,74.455,99.577,74.328,99.577z M76.832,93.576
					c-0.042,0-0.084-0.008-0.125-0.025c-0.165-0.069-0.243-0.259-0.174-0.424l1.252-3c0.07-0.166,0.26-0.241,0.425-0.174
					c0.165,0.069,0.243,0.259,0.174,0.424l-1.252,3.001C77.079,93.501,76.958,93.576,76.832,93.576z M79.337,87.574
					c-0.042,0-0.084-0.008-0.125-0.025c-0.166-0.069-0.243-0.259-0.174-0.424l1.255-3.003c0.069-0.167,0.261-0.242,0.425-0.174
					c0.165,0.069,0.243,0.259,0.174,0.424l-1.255,3.003C79.584,87.499,79.464,87.574,79.337,87.574z M81.848,81.568
					c-0.042,0-0.084-0.008-0.125-0.025c-0.166-0.069-0.243-0.259-0.174-0.424l0.427-1.021c0.303-0.724,0.491-1.173,0.543-1.3
					c0.014-0.096,0.051-0.334,0.136-0.688c0.042-0.174,0.214-0.285,0.391-0.24c0.174,0.042,0.281,0.217,0.24,0.391
					c-0.099,0.412-0.127,0.646-0.128,0.658l-0.022-0.002c-0.044,0.195-0.204,0.576-0.562,1.432l-0.427,1.021
					C82.095,81.493,81.975,81.568,81.848,81.568z M84.106,75.476c-0.048,0-0.098-0.011-0.144-0.034
					c-0.16-0.079-0.226-0.274-0.146-0.435c0.472-0.951,1.047-1.898,1.708-2.814c0.105-0.145,0.308-0.177,0.453-0.073
					c0.146,0.105,0.178,0.308,0.073,0.453c-0.642,0.888-1.198,1.804-1.654,2.723C84.34,75.409,84.225,75.476,84.106,75.476z
					 M87.867,70.224c-0.081,0-0.162-0.03-0.224-0.091c-0.129-0.124-0.134-0.329-0.009-0.458c0.737-0.767,1.548-1.513,2.412-2.219
					c0.137-0.114,0.343-0.094,0.456,0.046c0.113,0.138,0.093,0.342-0.046,0.456c-0.843,0.69-1.635,1.418-2.355,2.167
					C88.038,70.191,87.952,70.224,87.867,70.224z M92.864,66.117c-0.106,0-0.209-0.052-0.271-0.146
					c-0.098-0.15-0.057-0.351,0.093-0.449c0.882-0.581,1.827-1.143,2.809-1.671c0.157-0.087,0.354-0.026,0.439,0.131
					c0.085,0.158,0.026,0.354-0.131,0.439c-0.965,0.52-1.893,1.072-2.76,1.642C92.987,66.099,92.925,66.117,92.864,66.117z
					 M98.559,63.038c-0.124,0-0.243-0.072-0.296-0.193c-0.073-0.164,0.001-0.355,0.165-0.428c0.468-0.207,0.95-0.411,1.444-0.613
					l1.571-0.634c0.167-0.065,0.355,0.013,0.422,0.179c0.067,0.166-0.013,0.355-0.179,0.422l-1.569,0.634
					c-0.489,0.198-0.964,0.4-1.426,0.605C98.647,63.029,98.603,63.038,98.559,63.038z M104.587,60.576
					c-0.128,0-0.25-0.077-0.301-0.204c-0.066-0.167,0.014-0.355,0.18-0.422l3.021-1.216c0.167-0.064,0.355,0.014,0.422,0.18
					c0.066,0.166-0.014,0.355-0.18,0.422l-3.021,1.216C104.669,60.568,104.627,60.576,104.587,60.576z M110.627,58.146
					c-0.129,0-0.25-0.077-0.301-0.204c-0.066-0.166,0.014-0.354,0.181-0.421l3.018-1.213c0.167-0.066,0.354,0.014,0.422,0.181
					c0.066,0.166-0.014,0.354-0.181,0.421l-3.018,1.213C110.708,58.138,110.667,58.146,110.627,58.146z M116.661,55.722
					c-0.128,0-0.25-0.077-0.301-0.204c-0.066-0.166,0.014-0.355,0.18-0.422l3.017-1.211c0.167-0.066,0.354,0.014,0.421,0.181
					c0.066,0.166-0.014,0.354-0.18,0.421l-3.016,1.211C116.742,55.714,116.702,55.722,116.661,55.722z M122.693,53.3
					c-0.128,0-0.25-0.077-0.301-0.204c-0.066-0.166,0.014-0.355,0.181-0.422l3.015-1.21c0.166-0.065,0.354,0.014,0.421,0.181
					c0.066,0.166-0.014,0.354-0.18,0.421l-3.015,1.21C122.774,53.292,122.733,53.3,122.693,53.3z M128.725,50.88
					c-0.128,0-0.25-0.077-0.301-0.204c-0.066-0.166,0.014-0.354,0.181-0.422l3.015-1.209c0.166-0.065,0.355,0.014,0.421,0.18
					c0.066,0.166-0.014,0.355-0.18,0.422l-3.015,1.21C128.806,50.873,128.765,50.88,128.725,50.88z M134.754,48.462
					c-0.128,0-0.25-0.077-0.301-0.204c-0.066-0.166,0.014-0.354,0.18-0.422l3.015-1.209c0.167-0.065,0.355,0.014,0.422,0.18
					c0.066,0.167-0.014,0.355-0.18,0.422l-3.015,1.209C134.835,48.454,134.795,48.462,134.754,48.462z M140.785,46.044
					c-0.128,0-0.25-0.077-0.301-0.204c-0.066-0.166,0.014-0.354,0.18-0.422l3.015-1.208c0.167-0.066,0.354,0.014,0.422,0.18
					c0.066,0.167-0.014,0.355-0.181,0.422l-3.014,1.209C140.866,46.036,140.825,46.044,140.785,46.044z M146.824,43.621
					c-0.129,0-0.254-0.075-0.305-0.202c-0.066-0.166,0.008-0.352,0.174-0.419l3.01-1.207c0.166-0.065,0.355,0.014,0.422,0.181
					c0.066,0.166-0.014,0.354-0.181,0.422l-2.998,1.201C146.907,43.614,146.865,43.621,146.824,43.621z M152.842,41.21
					c-0.128,0-0.25-0.077-0.301-0.204c-0.066-0.167,0.015-0.355,0.18-0.422l3.015-1.208c0.167-0.066,0.355,0.014,0.422,0.18
					s-0.014,0.354-0.181,0.422l-3.015,1.208C152.923,41.202,152.883,41.21,152.842,41.21z M158.872,38.792
					c-0.128,0-0.25-0.077-0.301-0.204c-0.066-0.167,0.014-0.355,0.181-0.422l3.015-1.208c0.166-0.066,0.355,0.014,0.421,0.18
					c0.066,0.166-0.014,0.354-0.18,0.421l-3.015,1.209C158.953,38.785,158.912,38.792,158.872,38.792z M164.901,36.376
					c-0.128,0-0.25-0.077-0.301-0.204c-0.066-0.167,0.015-0.355,0.18-0.422l3.015-1.208c0.167-0.065,0.355,0.014,0.422,0.18
					s-0.014,0.355-0.181,0.422l-3.014,1.208C164.982,36.369,164.942,36.376,164.901,36.376z M170.932,33.96
					c-0.128,0-0.25-0.077-0.301-0.204c-0.066-0.167,0.014-0.355,0.181-0.421l3.015-1.208c0.167-0.064,0.355,0.014,0.422,0.181
					c0.066,0.167-0.014,0.355-0.181,0.422l-3.015,1.208C171.013,33.952,170.972,33.96,170.932,33.96z M176.963,31.543
					c-0.128,0-0.25-0.077-0.301-0.204c-0.066-0.167,0.014-0.355,0.18-0.422l3.016-1.208c0.167-0.065,0.355,0.014,0.422,0.18
					c0.066,0.166-0.014,0.355-0.18,0.422l-3.016,1.208C177.044,31.536,177.004,31.543,176.963,31.543z M182.996,29.127
					c-0.129,0-0.25-0.077-0.301-0.204c-0.066-0.167,0.015-0.355,0.181-0.422l3.016-1.208c0.165-0.065,0.355,0.014,0.421,0.181
					c0.066,0.166-0.014,0.355-0.18,0.421l-3.016,1.208C183.077,29.119,183.036,29.127,182.996,29.127z M189.029,26.71
					c-0.128,0-0.25-0.077-0.301-0.204c-0.067-0.167,0.014-0.355,0.18-0.421l3.018-1.209c0.165-0.065,0.355,0.014,0.422,0.181
					c0.066,0.166-0.015,0.355-0.181,0.421l-3.018,1.209C189.11,26.702,189.069,26.71,189.029,26.71z M195.066,24.292
					c-0.128,0-0.25-0.077-0.301-0.204c-0.066-0.167,0.015-0.355,0.181-0.421l3.02-1.21c0.166-0.066,0.355,0.014,0.422,0.18
					c0.066,0.167-0.014,0.355-0.181,0.422l-3.02,1.21C195.147,24.284,195.106,24.292,195.066,24.292z M201.108,21.872
					c-0.129,0-0.25-0.077-0.301-0.204c-0.066-0.167,0.014-0.355,0.18-0.422l3.025-1.211c0.166-0.065,0.355,0.014,0.421,0.181
					c0.067,0.166-0.014,0.355-0.18,0.421l-3.025,1.211C201.188,21.864,201.148,21.872,201.108,21.872z M220.202,20.074
					c-0.131,0-0.255-0.081-0.304-0.211c-0.172-0.462-0.411-0.866-0.707-1.2c-0.119-0.133-0.106-0.338,0.027-0.458
					c0.132-0.119,0.337-0.107,0.458,0.028c0.35,0.394,0.629,0.866,0.83,1.403c0.063,0.167-0.023,0.355-0.19,0.417
					C220.278,20.067,220.24,20.074,220.202,20.074z M207.163,19.448c-0.128,0-0.25-0.077-0.301-0.204
					c-0.066-0.167,0.015-0.355,0.181-0.422l1.694-0.679c0.013-0.005,0.539-0.233,1.37-0.511c0.17-0.055,0.354,0.036,0.411,0.205
					c0.056,0.169-0.035,0.354-0.205,0.41c-0.801,0.268-1.32,0.492-1.325,0.495l-1.703,0.683
					C207.244,19.439,207.203,19.448,207.163,19.448z M213.353,17.471c-0.156,0-0.294-0.113-0.32-0.272
					c-0.028-0.177,0.092-0.343,0.268-0.372c1.247-0.202,2.373-0.234,3.329-0.095c0.178,0.026,0.3,0.19,0.274,0.367
					c-0.025,0.178-0.192,0.304-0.367,0.274c-0.892-0.129-1.952-0.098-3.132,0.093C213.388,17.47,213.37,17.471,213.353,17.471z"/>
				<polygon fill="#F6F6F2" points="68.396,75.914 79.926,72.818 73.119,89.193 62.9,89.962 				"/>
				<path fill="#EF4E55" d="M48.376,127.879c0,0,11.854-4.354,6.432-17.025L48.376,127.879z"/>
			</g>
			<path display="inline" fill="#835844" d="M57.928,153.063v25.698c0,0-0.406,9.647,8.998,17.024s52.45,45.316,52.45,45.316
				s12.241,15.402,33.399,3.08c21.158-12.322,93.794-53.261,93.794-53.261s12.809-6.404,12.89-16.213
				c0.081-9.81,1.054-24.888,1.054-24.888s1.135-3.972,0-7.053s-9.728-7.458-9.728-7.458l-64.205-39.722c0,0-7.782-3.243-14.835,0
				C164.692,98.83,64.251,145.28,64.251,145.28S57.604,147.712,57.928,153.063z"/>
			<ellipse display="inline" fill="#78D5F9" cx="75.128" cy="188.739" rx="6.732" ry="8.083"/>
			<polygon display="inline" fill="#EF4E55" points="76.25,193.412 91.398,191.813 94.484,207.218 81.299,208.135 			"/>
			<polygon display="inline" fill="#F6F6F2" points="101.735,207.169 124.779,224.96 124.779,234.689 101.735,216.34 			"/>
			<path display="inline" fill="#35241D" d="M63.683,148.803l109.576-51.149c0,0,5.607-3.443,12.886,0.688
				s68.264,41.411,68.264,41.411s9.246,5.606-1.279,11.41c-10.525,5.804-107.904,58.526-107.904,58.526s-9.542,5.114-20.853-3.935
				c-11.312-9.05-61.182-50.362-61.182-50.362S58.303,151.313,63.683,148.803z"/>
			<polygon display="inline" fill="#E1C37D" points="155.595,221.35 155.595,232.377 170.887,223.431 170.887,212.721 			"/>
			<polygon display="inline" fill="#E1C37D" points="182.03,206.963 182.03,214.415 192.366,208.369 192.366,201.131 			"/>
			<polygon display="inline" fill="#E1C37D" points="214.06,188.946 214.06,196.398 224.396,190.353 224.396,183.114 			"/>
			<polygon display="inline" fill="#E1C37D" points="232.577,175.473 232.577,186.5 247.869,177.553 247.869,166.678 			"/>
			<path display="inline" fill="#4C3329" d="M136.645,218.979c-10.461,0-16.041-6.529-16.12-6.624l-62.819-53.343
				c-0.136-0.116-0.153-0.321-0.037-0.457c0.115-0.135,0.321-0.154,0.457-0.037l62.859,53.383c0.067,0.073,2.83,3.348,8.059,5.197
				c4.824,1.706,12.804,2.514,23.414-3.327C173,202.463,259.251,153.926,260.12,153.437c0.158-0.086,0.354-0.032,0.442,0.124
				c0.088,0.155,0.032,0.353-0.124,0.441c-0.869,0.489-87.123,49.028-107.667,60.337
				C146.53,217.775,141.137,218.979,136.645,218.979z"/>
			<g display="inline">
				<path fill="#E1C37D" d="M59.152,157.488c-0.074,0-0.148-0.024-0.21-0.077l-1.236-1.049c-0.136-0.115-0.153-0.32-0.038-0.457
					c0.116-0.135,0.321-0.154,0.458-0.037l1.236,1.049c0.137,0.115,0.153,0.321,0.038,0.457
					C59.336,157.449,59.244,157.488,59.152,157.488z"/>
				<path fill="#E1C37D" d="M135.583,216.34c-0.004,0-0.008,0-0.013,0c-1.1-0.043-2.2-0.164-3.27-0.358
					c-0.176-0.032-0.293-0.201-0.261-0.378c0.032-0.176,0.207-0.288,0.377-0.261c1.04,0.189,2.11,0.307,3.179,0.35
					c0.179,0.007,0.318,0.157,0.312,0.336C135.9,216.204,135.757,216.34,135.583,216.34z M138.827,216.261
					c-0.166,0-0.308-0.128-0.322-0.296c-0.016-0.178,0.116-0.335,0.294-0.351c1.039-0.092,2.106-0.251,3.172-0.471
					c0.177-0.036,0.348,0.076,0.384,0.251c0.036,0.176-0.077,0.348-0.252,0.384c-1.091,0.226-2.184,0.388-3.248,0.481
					C138.846,216.261,138.836,216.261,138.827,216.261z M129.218,215.175c-0.035,0-0.07-0.006-0.104-0.017
					c-1.043-0.354-2.063-0.786-3.032-1.286c-0.159-0.081-0.222-0.276-0.14-0.437c0.082-0.159,0.28-0.222,0.437-0.14
					c0.94,0.483,1.931,0.903,2.944,1.248c0.169,0.058,0.26,0.242,0.203,0.411C129.479,215.09,129.353,215.175,129.218,215.175z
					 M145.178,214.964c-0.138,0-0.265-0.089-0.309-0.227c-0.054-0.171,0.041-0.354,0.211-0.407c0.989-0.312,2.006-0.684,3.023-1.104
					c0.165-0.069,0.355,0.009,0.423,0.176c0.069,0.165-0.01,0.354-0.175,0.423c-1.034,0.428-2.069,0.806-3.076,1.124
					C145.244,214.959,145.211,214.964,145.178,214.964z M151.175,212.489c-0.118,0-0.232-0.064-0.289-0.178
					c-0.081-0.159-0.017-0.355,0.143-0.436c0.471-0.238,0.947-0.49,1.429-0.755l1.421-0.784c0.157-0.089,0.354-0.029,0.441,0.126
					c0.086,0.157,0.03,0.354-0.127,0.441l-1.422,0.784c-0.489,0.27-0.972,0.523-1.45,0.767
					C151.274,212.479,151.225,212.489,151.175,212.489z M123.464,212.209c-0.066,0-0.133-0.021-0.19-0.062
					c-1.274-0.925-2.113-1.755-2.5-2.167c-0.123-0.131-0.116-0.336,0.015-0.459c0.13-0.12,0.335-0.115,0.458,0.014
					c0.371,0.397,1.178,1.194,2.409,2.087c0.145,0.105,0.177,0.309,0.072,0.454C123.663,212.163,123.564,212.209,123.464,212.209z
					 M156.889,209.366c-0.115,0-0.225-0.061-0.285-0.167c-0.086-0.156-0.03-0.354,0.126-0.441l2.848-1.58
					c0.159-0.089,0.354-0.028,0.441,0.126c0.086,0.156,0.03,0.354-0.126,0.441l-2.848,1.58
					C156.995,209.354,156.941,209.366,156.889,209.366z M118.564,207.943c-0.074,0-0.149-0.024-0.21-0.077l-2.476-2.102
					c-0.136-0.116-0.153-0.321-0.037-0.457c0.116-0.136,0.322-0.154,0.457-0.037l2.476,2.103c0.136,0.116,0.153,0.32,0.037,0.457
					C118.748,207.904,118.656,207.943,118.564,207.943z M162.581,206.2c-0.114,0-0.224-0.06-0.284-0.167
					c-0.087-0.156-0.031-0.354,0.126-0.441l2.842-1.584c0.157-0.087,0.355-0.031,0.441,0.124c0.087,0.157,0.031,0.354-0.125,0.441
					l-2.844,1.587C162.688,206.187,162.634,206.2,162.581,206.2z M113.613,203.74c-0.074,0-0.149-0.024-0.21-0.077l-2.476-2.103
					c-0.136-0.116-0.153-0.32-0.037-0.457c0.115-0.136,0.32-0.154,0.457-0.037l2.476,2.103c0.136,0.116,0.153,0.321,0.037,0.457
					C113.796,203.702,113.705,203.74,113.613,203.74z M168.265,203.03c-0.113,0-0.224-0.059-0.283-0.166
					c-0.087-0.156-0.031-0.353,0.125-0.44l2.841-1.587c0.157-0.087,0.354-0.031,0.441,0.124c0.087,0.156,0.031,0.354-0.125,0.441
					l-2.841,1.587C168.373,203.018,168.318,203.03,168.265,203.03z M173.946,199.857c-0.114,0-0.224-0.06-0.284-0.166
					c-0.087-0.156-0.031-0.354,0.125-0.441l2.839-1.587c0.157-0.088,0.354-0.031,0.441,0.124c0.087,0.156,0.031,0.354-0.125,0.441
					l-2.839,1.587C174.054,199.844,174,199.857,173.946,199.857z M108.662,199.535c-0.074,0-0.149-0.024-0.21-0.077l-2.475-2.103
					c-0.137-0.116-0.153-0.32-0.037-0.456c0.114-0.137,0.321-0.154,0.457-0.037l2.476,2.103c0.136,0.116,0.153,0.32,0.037,0.456
					C108.846,199.496,108.754,199.535,108.662,199.535z M179.625,196.681c-0.114,0-0.224-0.059-0.284-0.165
					c-0.087-0.156-0.031-0.354,0.125-0.441l2.838-1.587c0.157-0.087,0.354-0.031,0.441,0.124c0.087,0.156,0.031,0.354-0.125,0.441
					l-2.838,1.587C179.732,196.668,179.678,196.681,179.625,196.681z M103.711,195.33c-0.074,0-0.149-0.024-0.21-0.076l-2.476-2.103
					c-0.136-0.116-0.153-0.321-0.037-0.457c0.116-0.136,0.321-0.154,0.457-0.037l2.476,2.103c0.136,0.116,0.153,0.32,0.037,0.457
					C103.895,195.293,103.803,195.33,103.711,195.33z M185.299,193.504c-0.114,0-0.224-0.06-0.284-0.165
					c-0.087-0.156-0.031-0.354,0.125-0.441l2.838-1.589c0.157-0.087,0.354-0.031,0.441,0.124c0.087,0.156,0.031,0.354-0.125,0.441
					l-2.837,1.589C185.407,193.49,185.353,193.504,185.299,193.504z M98.761,191.126c-0.074,0-0.149-0.024-0.21-0.077l-2.476-2.103
					c-0.136-0.116-0.153-0.32-0.037-0.457c0.115-0.136,0.32-0.154,0.457-0.037l2.476,2.103c0.136,0.116,0.153,0.32,0.037,0.457
					C98.944,191.087,98.853,191.126,98.761,191.126z M190.974,190.322c-0.114,0-0.224-0.059-0.283-0.165
					c-0.088-0.156-0.033-0.354,0.124-0.441l2.836-1.59c0.158-0.087,0.354-0.032,0.442,0.124c0.087,0.156,0.031,0.354-0.125,0.441
					l-2.836,1.59C191.082,190.309,191.027,190.322,190.974,190.322z M196.648,187.144c-0.114,0-0.224-0.06-0.283-0.166
					c-0.088-0.156-0.033-0.354,0.124-0.441l2.829-1.586c0.157-0.087,0.354-0.032,0.441,0.124c0.088,0.156,0.032,0.354-0.124,0.441
					l-2.829,1.586C196.756,187.13,196.702,187.144,196.648,187.144z M93.81,186.921c-0.075,0-0.149-0.024-0.21-0.077l-2.476-2.103
					c-0.136-0.116-0.153-0.32-0.037-0.457c0.116-0.135,0.321-0.154,0.457-0.036l2.476,2.102c0.136,0.116,0.153,0.321,0.037,0.457
					C93.993,186.883,93.901,186.921,93.81,186.921z M202.311,183.966c-0.114,0-0.224-0.059-0.283-0.165
					c-0.088-0.156-0.033-0.354,0.124-0.441l2.84-1.593c0.157-0.087,0.354-0.032,0.441,0.124c0.088,0.156,0.033,0.354-0.124,0.441
					l-2.841,1.593C202.418,183.953,202.365,183.966,202.311,183.966z M88.859,182.716c-0.074,0-0.149-0.024-0.21-0.077l-2.476-2.103
					c-0.136-0.116-0.153-0.32-0.037-0.456c0.115-0.136,0.321-0.154,0.457-0.037l2.476,2.103c0.136,0.116,0.153,0.32,0.037,0.457
					C89.042,182.677,88.95,182.716,88.859,182.716z M207.987,180.781c-0.114,0-0.224-0.06-0.283-0.165
					c-0.087-0.156-0.032-0.354,0.124-0.441l2.836-1.591c0.156-0.088,0.354-0.032,0.441,0.124c0.087,0.156,0.032,0.354-0.124,0.441
					l-2.836,1.591C208.095,180.768,208.041,180.781,207.987,180.781z M83.908,178.511c-0.074,0-0.149-0.024-0.21-0.076l-2.476-2.103
					c-0.136-0.116-0.153-0.321-0.037-0.457c0.115-0.136,0.321-0.154,0.457-0.037l2.476,2.103c0.136,0.116,0.153,0.32,0.037,0.457
					C84.091,178.474,84,178.511,83.908,178.511z M213.658,177.598c-0.114,0-0.224-0.06-0.283-0.165
					c-0.087-0.157-0.032-0.354,0.124-0.441l2.836-1.592c0.157-0.088,0.354-0.033,0.441,0.124c0.087,0.156,0.032,0.354-0.124,0.44
					l-2.836,1.593C213.766,177.584,213.712,177.598,213.658,177.598z M219.33,174.412c-0.113,0-0.224-0.059-0.283-0.165
					c-0.088-0.155-0.032-0.353,0.124-0.441l2.835-1.593c0.157-0.086,0.354-0.032,0.442,0.124c0.088,0.155,0.032,0.354-0.124,0.441
					l-2.835,1.593C219.438,174.399,219.384,174.412,219.33,174.412z M78.957,174.308c-0.074,0-0.149-0.024-0.21-0.077l-2.476-2.103
					c-0.136-0.116-0.153-0.32-0.037-0.457c0.116-0.137,0.321-0.153,0.457-0.036l2.476,2.102c0.136,0.116,0.153,0.321,0.037,0.457
					C79.14,174.269,79.048,174.308,78.957,174.308z M225.001,171.228c-0.114,0-0.224-0.059-0.283-0.165
					c-0.088-0.156-0.032-0.354,0.124-0.441l2.836-1.593c0.158-0.087,0.354-0.032,0.441,0.124c0.088,0.156,0.033,0.354-0.124,0.441
					l-2.835,1.593C225.109,171.214,225.055,171.228,225.001,171.228z M74.006,170.103c-0.075,0-0.149-0.024-0.21-0.077l-2.476-2.103
					c-0.136-0.116-0.153-0.32-0.037-0.456c0.116-0.136,0.321-0.154,0.457-0.037l2.476,2.103c0.136,0.116,0.153,0.32,0.037,0.456
					C74.189,170.064,74.097,170.103,74.006,170.103z M230.672,168.042c-0.114,0-0.224-0.06-0.283-0.166
					c-0.088-0.156-0.033-0.354,0.124-0.44l2.836-1.594c0.157-0.086,0.354-0.032,0.441,0.124c0.088,0.157,0.032,0.354-0.124,0.441
					L230.831,168C230.78,168.028,230.726,168.042,230.672,168.042z M69.055,165.898c-0.074,0-0.149-0.025-0.21-0.077l-2.476-2.103
					c-0.136-0.116-0.153-0.321-0.037-0.457c0.115-0.139,0.321-0.154,0.457-0.037l2.476,2.103c0.136,0.116,0.153,0.32,0.037,0.457
					C69.238,165.859,69.146,165.898,69.055,165.898z M236.344,164.854c-0.113,0-0.224-0.06-0.283-0.165
					c-0.088-0.155-0.033-0.354,0.123-0.441l2.837-1.595c0.156-0.088,0.354-0.031,0.441,0.124c0.088,0.157,0.032,0.354-0.124,0.441
					l-2.835,1.595C236.452,164.84,236.397,164.854,236.344,164.854z M64.104,161.693c-0.074,0-0.149-0.025-0.21-0.077l-2.476-2.103
					c-0.136-0.116-0.153-0.321-0.037-0.457c0.115-0.135,0.321-0.154,0.457-0.037l2.476,2.103c0.136,0.116,0.153,0.32,0.037,0.457
					C64.287,161.655,64.195,161.693,64.104,161.693z M242.017,161.664c-0.113,0-0.223-0.059-0.283-0.165
					c-0.088-0.156-0.033-0.353,0.123-0.441l2.837-1.595c0.157-0.086,0.354-0.033,0.442,0.124c0.088,0.155,0.033,0.353-0.124,0.441
					l-2.837,1.595C242.125,161.651,242.07,161.664,242.017,161.664z M247.691,158.475c-0.113,0-0.224-0.059-0.283-0.165
					c-0.088-0.155-0.033-0.353,0.123-0.441l2.838-1.596c0.158-0.086,0.354-0.033,0.442,0.124c0.087,0.155,0.032,0.353-0.124,0.441
					l-2.838,1.597C247.8,158.461,247.745,158.475,247.691,158.475z M253.37,155.281c-0.113,0-0.224-0.059-0.283-0.165
					c-0.088-0.155-0.033-0.353,0.123-0.441l2.842-1.599c0.158-0.085,0.354-0.031,0.442,0.124s0.032,0.353-0.124,0.441l-2.842,1.599
					C253.478,155.268,253.423,155.281,253.37,155.281z"/>
				<path fill="#E1C37D" d="M258.871,152.186c-0.113,0-0.223-0.06-0.283-0.166c-0.087-0.155-0.032-0.353,0.124-0.441l1.409-0.793
					c0.158-0.086,0.354-0.032,0.442,0.123c0.088,0.156,0.032,0.354-0.124,0.442l-1.409,0.793
					C258.979,152.172,258.925,152.186,258.871,152.186z"/>
			</g>
			<path display="inline" fill="#35241D" d="M185.121,209.575c0,0,1.525-2.955,4.957-2.67c0,0,0.286,9.438,6.768,7.722
				c6.482-1.716,24.183-10.009,21.258-22.783c0,0,1.525-3.908,4.004-2.955c0,0,3.432,14.395-7.531,21.83
				c-10.963,7.436-18.875,14.108-25.929,8.484C188.648,219.203,185.502,217.296,185.121,209.575z"/>
			<polygon display="inline" fill="#B7934B" points="156.876,231.628 156.876,222.549 170.887,214.415 170.887,212.721 
				155.595,221.35 155.595,232.377 			"/>
			<polygon display="inline" fill="#B7934B" points="232.577,186.5 232.577,175.473 247.869,166.678 247.869,168.7 233.988,176.589 
				234.107,185.604 			"/>
			<polygon display="inline" fill="#B7934B" points="182.03,214.415 182.03,206.963 192.366,201.131 192.366,202.031 
				182.777,207.773 182.781,213.977 			"/>
			<polygon display="inline" fill="#B7934B" points="214.06,196.398 215.121,195.778 215.121,189.327 224.396,184.022 
				224.396,183.114 214.06,188.946 			"/>
			<polygon display="inline" fill="#E1C37D" points="128.306,37.448 132.354,43.672 168.557,29.016 164.205,22.591 			"/>
			<polygon display="inline" fill="#B7934B" points="128.306,37.448 132.354,43.672 168.557,29.016 168.002,28.196 132.833,42.737 
				129.231,37.065 			"/>
			
				<rect x="147.791" y="29.885" transform="matrix(0.9221 -0.3871 0.3871 0.9221 -1.0022 59.9821)" display="inline" fill="#604A23" width="1.28" height="5.19"/>
			<polygon display="inline" fill="#443317" points="146.928,30.55 147.91,30.149 149.83,34.707 148.845,35.12 			"/>
		</g>
		<g>
			<polygon opacity="0.5" fill="#262320" points="276.755,272.538 662.828,265.103 740.043,168.489 408.879,196.398 			"/>
			<polygon opacity="0.5" fill="#262320" points="276.755,272.538 172.057,233.111 153.437,205.243 166.815,197.997 			"/>
			<polygon fill="#F6F6F2" points="128.617,183.114 276.755,272.538 408.879,196.398 271.706,111.088 			"/>
			<polygon fill="#DDDDD0" points="276.755,272.538 532.422,239.365 619.932,151.069 408.879,196.398 			"/>
			<polygon fill="#F6F6F2" points="532.422,239.365 662.828,265.103 740.043,168.489 619.932,151.069 			"/>
			<polygon fill="#DDDDD0" points="128.617,183.114 91.715,178.976 210.508,112.997 271.706,111.088 			"/>
			<polygon fill="#F6F6F2" points="91.715,178.976 101.735,122.685 219.228,70.524 210.508,112.997 			"/>
			<polygon fill="#6B685B" points="101.735,122.685 77.154,167.015 91.715,178.976 			"/>
			<polygon fill="#CAEC58" points="106.698,120.481 98.327,175.303 204.93,116.096 214.06,72.818 			"/>
			<path fill="#78D5F9" d="M122.345,133.656c1.849-3.548,4.155-6.844,5.979-10.405c1.824-3.561,3.175-7.502,2.899-11.494
				c-0.032-0.461-0.132-1.191-0.3-2.031l-8.039,3.569c1.707,2.874,2.229,6.478,1.139,9.65c-0.424,1.234-1.131,2.463-2.299,3.046
				c-0.949,0.473-2.058,0.451-3.118,0.419c-2.571-0.077-5.277-0.192-7.463-1.548c-1.643-1.019-2.811-2.632-4.224-3.951
				c-0.081-0.076-0.169-0.147-0.254-0.221l-0.824,5.396c1.44,0.255,2.865,0.875,4.127,1.63c3.232,1.934,6.146,5.036,6.347,8.797
				c0.104,1.953-0.531,3.858-1.091,5.731c-2.466,8.251-3.574,16.901-3.307,25.51l6.629-3.682c-1.037-2.816-1.402-5.921-1.414-8.946
				C117.102,147.69,118.908,140.251,122.345,133.656z"/>
			<polygon fill="#9EBD44" points="98.327,175.303 137.753,178.516 264.572,114.679 204.93,116.096 			"/>
			<polygon fill="#CAEC58" points="137.753,178.516 286.259,267.062 402.354,200.158 264.572,114.679 			"/>
			<path fill="#78D5F9" d="M170.887,161.836c0,0,26.782,26.144,61.69-3.647c34.908-29.792,75.271-16.662,75.271-16.662l5.639,3.498
				c0,0-27.509-4.806-35.079,1.572c-7.57,6.378,9.609,15.502,18.801,11.406c9.192-4.097,30.292-4.284,30.292-4.284l7.254,4.5
				c0,0-19.417,1.272-32.637,6.672c-13.22,5.4-28.302,0.097-35.005-11.496c0,0-9.32-7.122-21.977,6.19
				c-12.656,13.312-30.788,21.752-57.938,18.929c0,0-12.813-1.893-18.399-8.596c0,0-3.277-3.469-11.214-1.388L170.887,161.836z"/>
			<path fill="#78D5F9" d="M292.535,260.742c6.926-4.265,14.098-8.769,18.409-15.667c4.311-6.897,4.776-16.93-1.184-22.465
				c-4.408-4.093-11.07-4.72-17.009-3.772s-11.606,3.225-17.549,4.152c-8.319,1.3-17.046-0.161-24.49-4.098
				c-5.684-3.007-10.617-7.395-16.568-9.827c-9.59-3.918-23.325-1.731-30.438,6.249c-0.52,0.584-0.953,1.164-1.317,1.739
				l81.842,48.798c0.147-0.089,0.294-0.177,0.44-0.267C287.292,263.971,289.914,262.356,292.535,260.742z"/>
			<polygon fill="#9EBD44" points="286.259,267.062 539.348,232.377 615.877,155.161 402.354,200.158 			"/>
			<polygon fill="#CAEC58" points="539.348,232.377 655.631,254.985 725.619,172.529 615.877,155.161 			"/>
			<g opacity="0.4">
				<g>
					<path fill="none" stroke="#262320" stroke-linecap="round" stroke-linejoin="round" d="M160.62,99.251
						c0.945,0.329,1.777,0.773,2.501,1.314"/>
					<path fill="none" stroke="#262320" stroke-linecap="round" stroke-linejoin="round" stroke-dasharray="5.6454,5.6454" d="
						M166.354,105.098c1.961,5.512,0.2,13.337-3.417,18.602c-4.274,6.223-10.24,12.207-12.156,19.156"/>
					<path fill="none" stroke="#262320" stroke-linecap="round" stroke-linejoin="round" d="M150.251,145.626
						c-0.098,0.924-0.117,1.866-0.045,2.829c0.833-0.445,1.667-0.891,2.5-1.335"/>
					<path fill="none" stroke="#262320" stroke-linecap="round" stroke-linejoin="round" stroke-dasharray="5.7789,5.7789" d="
						M157.804,144.397c9.066-4.842,18.132-9.685,27.198-14.527c4.272-2.282,8.748-4.62,13.59-4.732s10.125,2.761,11.047,7.516
						c0.993,5.117-3.107,9.619-5.446,14.278c-5.727,11.412-0.368,26.046,9.475,34.177c9.844,8.131,23.023,10.953,35.755,11.919
						c26.708,2.026,53.52-2.947,80.279-1.758c10.58,0.47,23.049,3.317,26.909,13.179c2.721,6.954-0.078,14.477-4.273,20.954"/>
					<path fill="none" stroke="#262320" stroke-linecap="round" stroke-linejoin="round" d="M350.703,227.785
						c-0.56,0.773-1.133,1.527-1.712,2.259c0.555,0.78,1.164,1.502,1.818,2.17"/>
					<path fill="none" stroke="#262320" stroke-linecap="round" stroke-linejoin="round" stroke-dasharray="5.7702,5.7702" d="
						M355.384,235.7c4.782,2.743,10.659,4.003,16.213,4.827c52.904,7.856,108.57-4.624,153.055-34.313
						c17.207-11.483,35.805-26.149,55.697-24.628"/>
					<path fill="none" stroke="#262320" stroke-linecap="round" stroke-linejoin="round" d="M583.219,181.919
						c0.924,0.144,1.852,0.324,2.781,0.543c0.072,0.946,0.174,1.888,0.303,2.822"/>
					<path fill="none" stroke="#262320" stroke-linecap="round" stroke-linejoin="round" stroke-dasharray="5.5279,5.5279" d="
						M587.381,190.704c5.373,20.724,24.34,37.479,45.732,40.862c11.354,1.795,23.559,0.101,33.064-6.364
						c9.504-6.465,15.764-18.117,14.18-29.503c-1.586-11.386-11.986-21.376-23.473-20.951c-9.578,0.355-18.098,8.984-18.738,18.222"
						/>
					<path fill="none" stroke="#262320" stroke-linecap="round" stroke-linejoin="round" d="M638.195,195.731
						c0.1,0.929,0.283,1.854,0.561,2.772"/>
				</g>
			</g>
			<path fill="#CBB08F" d="M402.611,216.756c2.021,3.369,5.916,5.299,9.82,5.749c3.904,0.449,7.842-0.401,11.604-1.535
				c3.637-1.097,7.338-2.48,11.117-2.091c1.904,0.196,3.729,0.838,5.576,1.337c9.975,2.698,20.734,1.215,30.389-2.472
				c9.654-3.686,18.357-9.465,26.732-15.517c7.289-5.267,14.459-10.813,22.541-14.754c9.699-4.729,20.383-6.988,30.943-9.205
				c4.924-1.033,9.891-2.072,14.922-2.06c2.869,0.008,5.762,0.356,8.592-0.108c5.637-0.927,10.316-4.985,13.611-9.651
				c1.414-2.003,2.621-4.133,3.764-6.304l-189.869,40.013l-1.816,1.047c0.104,1.645,0.18,3.277,0.172,4.881
				C400.691,209.746,400.729,213.616,402.611,216.756z"/>
			<path fill="#F5E4BB" d="M414.607,214.804c10.898,5.905,23.936-8.862,35.705-4.972c1.691,0.559,3.24,1.486,4.932,2.039
				c8.473,2.767,16.643-4.257,23.412-10.054c9.758-8.354,20.922-15.28,33.232-18.951c12.848-3.831,26.488-4.017,39.602-6.81
				c9.818-2.092,19.836-6.122,26.879-12.992l-170.152,35.858c-0.098,0.586-0.174,1.185-0.215,1.797
				C407.631,206.188,409.789,212.193,414.607,214.804z"/>
			<g>
				<path fill="#BD3D44" d="M304.34,160.139l9.999,2.156c0,0,23.367-19.205,24.979-46.924c0,0,3.813-30.145-29.966-29.318
					c0,0,20.062,6.396,19.042,23.497s-23.546,46.045-23.546,46.045L304.34,160.139z"/>
				<path fill="#BD3D44" d="M306.219,95.498c0,0-12.889,10.432-2.686,24.037l-11.091-0.348l-1.571-15.164l3.247-9.135l4.643-1.708
					C298.761,93.181,304.43,91.588,306.219,95.498z"/>
				<path fill="#EF4E55" d="M309.351,86.053c-5.26-0.736-24.364-1.089-27.473,22.752c-3.109,23.842,22.461,51.333,22.461,51.333
					s23.79-19.009,28.512-44.006C337.574,91.135,314.612,86.79,309.351,86.053z M304.572,119.8
					c-5.925-0.662-10.121-6.645-9.37-13.364c0.75-6.718,6.162-11.628,12.088-10.966c5.925,0.662,10.12,6.645,9.37,13.364
					S310.498,120.462,304.572,119.8z"/>
			</g>
			<g>
				<path fill="#BD3D44" d="M609.684,209.995l10,2.156c0,0,23.365-19.205,24.979-46.924c0,0,3.813-30.145-29.967-29.318
					c0,0,20.063,6.396,19.043,23.497c-1.021,17.1-23.547,46.044-23.547,46.044L609.684,209.995z"/>
				<path fill="#BD3D44" d="M611.563,145.354c0,0-12.889,10.432-2.686,24.038l-11.09-0.349l-1.57-15.164l3.246-9.135l4.643-1.708
					C604.105,143.037,609.773,141.444,611.563,145.354z"/>
				<path fill="#EF4E55" d="M614.695,135.91c-5.26-0.736-24.363-1.089-27.473,22.752s22.461,51.333,22.461,51.333
					s23.791-19.009,28.512-44.006C642.918,140.992,619.955,136.646,614.695,135.91z M609.916,169.656
					c-5.924-0.662-10.119-6.646-9.369-13.364s6.162-11.628,12.088-10.966c5.926,0.662,10.119,6.645,9.369,13.364
					S615.842,170.318,609.916,169.656z"/>
			</g>
			<path fill="#57B6D3" d="M111.918,167.755c0,0,18.253,9.445,45.667,0.777l13.302-6.696c0,0-28.856,11.1-52.34,2.237
				L111.918,167.755z"/>
			<g>
				<polygon fill="#84847F" points="404.73,135.114 404.959,121.596 411.516,121.596 				"/>
				<polygon fill="#A3A39F" points="463.711,110.255 406.775,123.214 404.73,135.114 				"/>
				<polygon fill="#E5E5E3" points="463.711,110.255 393.748,111.617 406.775,123.214 				"/>
				<polygon fill="#F6F6F2" points="406.775,123.214 463.711,110.255 435.242,132.937 				"/>
			</g>
			<g>
				<path fill="#FFFFFF" d="M399.111,137.337c-0.205,0-0.406-0.113-0.508-0.309c-0.145-0.281-0.035-0.626,0.246-0.771
					c0.473-0.245,0.941-0.497,1.41-0.758c0.275-0.153,0.621-0.056,0.777,0.221c0.154,0.276,0.055,0.625-0.221,0.778
					c-0.477,0.266-0.959,0.525-1.441,0.774C399.291,137.316,399.201,137.337,399.111,137.337z"/>
				<g>
					<path fill="#FFFFFF" d="M248.354,128.932c-0.216-0.23-0.577-0.242-0.809-0.027c-0.23,0.216-0.242,0.578-0.027,0.809
						c0.713,0.761,1.536,1.518,2.448,2.249c0.105,0.084,0.232,0.126,0.357,0.126c0.167,0,0.334-0.073,0.447-0.214
						c0.198-0.247,0.158-0.607-0.088-0.805C249.813,130.373,249.029,129.654,248.354,128.932z"/>
					<path fill="#FFFFFF" d="M250.115,125.113c0.207,0,0.406-0.112,0.508-0.308c0.146-0.28,0.038-0.626-0.243-0.771
						c-0.951-0.496-1.893-1.01-2.826-1.544c-0.274-0.158-0.624-0.063-0.78,0.212c-0.157,0.273-0.063,0.623,0.212,0.78
						c0.945,0.542,1.901,1.064,2.866,1.566C249.936,125.092,250.026,125.113,250.115,125.113z"/>
					<path fill="#FFFFFF" d="M245.271,123.642c-0.072-0.308-0.382-0.499-0.688-0.424c-0.307,0.072-0.498,0.38-0.425,0.688
						c0.25,1.052,0.691,2.109,1.315,3.144c0.107,0.178,0.297,0.276,0.491,0.276c0.101,0,0.202-0.026,0.294-0.082
						c0.271-0.163,0.358-0.515,0.195-0.785C245.891,125.526,245.493,124.578,245.271,123.642z"/>
					<path fill="#FFFFFF" d="M244.491,121.885c0.19,0,0.375-0.094,0.484-0.267c0.128-0.203,0.113-0.454-0.018-0.638
						c0.096-0.086,0.164-0.205,0.184-0.342c0.146-0.984,0.483-1.937,1.003-2.831c0.159-0.273,0.066-0.624-0.207-0.782
						c-0.272-0.159-0.624-0.066-0.782,0.207c-0.571,0.979-0.949,2.024-1.125,3.106c-0.49-0.317-0.977-0.641-1.462-0.971
						l-0.458-0.314c-0.26-0.182-0.616-0.116-0.796,0.144c-0.181,0.259-0.116,0.615,0.144,0.796l0.466,0.32
						c0.747,0.509,1.5,1.003,2.262,1.483C244.281,121.856,244.387,121.885,244.491,121.885z"/>
					<path fill="#FFFFFF" d="M274.083,141.137c-1.051-0.229-2.098-0.476-3.139-0.741c-0.309-0.08-0.618,0.106-0.695,0.413
						c-0.078,0.306,0.106,0.618,0.413,0.696c1.055,0.269,2.114,0.518,3.178,0.75c0.041,0.009,0.082,0.013,0.123,0.013
						c0.263,0,0.5-0.183,0.558-0.45C274.587,141.509,274.391,141.204,274.083,141.137z"/>
					<path fill="#FFFFFF" d="M222.566,102.15c-0.228-0.216-0.589-0.208-0.809,0.021c-0.218,0.229-0.209,0.591,0.021,0.809
						l2.35,2.238c0.111,0.105,0.252,0.157,0.395,0.157c0.151,0,0.302-0.06,0.414-0.178c0.218-0.229,0.208-0.591-0.02-0.809
						L222.566,102.15z"/>
					<path fill="#FFFFFF" d="M232.037,110.999c-0.236-0.21-0.597-0.189-0.808,0.046c-0.211,0.236-0.19,0.598,0.046,0.808
						c0.812,0.724,1.629,1.438,2.455,2.142c0.107,0.092,0.24,0.137,0.371,0.137c0.161,0,0.322-0.068,0.435-0.201
						c0.205-0.24,0.176-0.601-0.064-0.806C233.652,112.426,232.841,111.717,232.037,110.999z"/>
					<path fill="#FFFFFF" d="M236.956,115.185c-0.246-0.197-0.606-0.158-0.804,0.087c-0.198,0.247-0.159,0.606,0.087,0.805
						c0.848,0.682,1.705,1.352,2.573,2.004c0.103,0.078,0.224,0.115,0.343,0.115c0.174,0,0.345-0.079,0.458-0.228
						c0.19-0.252,0.14-0.611-0.113-0.801C238.641,116.521,237.793,115.859,236.956,115.185z"/>
					<path fill="#FFFFFF" d="M227.271,106.618c-0.229-0.215-0.591-0.205-0.809,0.025c-0.216,0.23-0.206,0.592,0.024,0.809
						c0.789,0.742,1.582,1.482,2.378,2.216c0.11,0.102,0.249,0.151,0.387,0.151c0.154,0,0.308-0.062,0.421-0.184
						c0.214-0.232,0.199-0.594-0.033-0.809C228.846,108.095,228.056,107.358,227.271,106.618z"/>
					<path fill="#FFFFFF" d="M267.837,139.541c-1.03-0.307-2.052-0.636-3.063-0.989c-0.298-0.104-0.624,0.053-0.729,0.351
						c-0.104,0.298,0.053,0.625,0.351,0.729c1,0.349,2.048,0.688,3.114,1.005c0.055,0.016,0.11,0.024,0.164,0.024
						c0.247,0,0.474-0.16,0.548-0.409C268.313,139.949,268.14,139.631,267.837,139.541z"/>
					<path fill="#FFFFFF" d="M255.994,134.625c-0.939-0.532-1.857-1.097-2.728-1.677c-0.264-0.176-0.618-0.104-0.793,0.159
						c-0.175,0.262-0.104,0.618,0.159,0.793c0.893,0.596,1.834,1.175,2.797,1.721c0.089,0.05,0.186,0.075,0.282,0.075
						c0.199,0,0.393-0.104,0.499-0.29C256.365,135.129,256.269,134.78,255.994,134.625z"/>
					<path fill="#FFFFFF" d="M268.705,106.871c-1.067,0.199-2.132,0.409-3.194,0.628c-0.31,0.064-0.508,0.366-0.444,0.676
						c0.056,0.27,0.293,0.456,0.56,0.456c0.038,0,0.077-0.004,0.116-0.012c1.056-0.218,2.113-0.427,3.173-0.624
						c0.311-0.058,0.515-0.357,0.458-0.667S269.02,106.818,268.705,106.871z"/>
					<path fill="#FFFFFF" d="M262.329,108.191c-1.059,0.241-2.115,0.492-3.168,0.753c-0.307,0.077-0.493,0.387-0.417,0.693
						c0.065,0.261,0.298,0.434,0.555,0.434c0.046,0,0.092-0.005,0.139-0.017c1.045-0.26,2.095-0.509,3.146-0.749
						c0.308-0.07,0.501-0.376,0.43-0.684C262.942,108.313,262.635,108.117,262.329,108.191z"/>
					<path fill="#FFFFFF" d="M268.397,130.973c-1.04-0.281-2.073-0.578-3.101-0.892c-0.304-0.095-0.623,0.078-0.714,0.38
						c-0.093,0.302,0.078,0.622,0.38,0.714c1.039,0.318,2.085,0.618,3.137,0.903c0.05,0.013,0.1,0.02,0.15,0.02
						c0.252,0,0.482-0.168,0.552-0.423C268.882,131.369,268.702,131.055,268.397,130.973z"/>
					<path fill="#FFFFFF" d="M255.997,109.847c-1.083,0.358-2.12,0.758-3.082,1.187c-0.289,0.128-0.418,0.467-0.29,0.755
						c0.095,0.213,0.304,0.339,0.523,0.339c0.078,0,0.157-0.016,0.232-0.05c0.928-0.414,1.929-0.799,2.976-1.146
						c0.299-0.099,0.462-0.423,0.363-0.723C256.621,109.911,256.298,109.745,255.997,109.847z"/>
					<path fill="#FFFFFF" d="M256.207,126.781c-0.989-0.42-1.969-0.86-2.94-1.318c-0.286-0.135-0.626-0.012-0.761,0.273
						s-0.012,0.626,0.273,0.761c0.985,0.465,1.979,0.909,2.98,1.335c0.073,0.031,0.149,0.046,0.224,0.046
						c0.222,0,0.434-0.131,0.526-0.348C256.633,127.24,256.497,126.905,256.207,126.781z"/>
					<path fill="#FFFFFF" d="M262.228,129.087c-1.017-0.349-2.028-0.714-3.032-1.099c-0.294-0.111-0.625,0.035-0.738,0.329
						c-0.113,0.295,0.034,0.626,0.329,0.739c1.017,0.39,2.04,0.76,3.07,1.113c0.062,0.021,0.124,0.031,0.186,0.031
						c0.238,0,0.459-0.149,0.541-0.387C262.686,129.515,262.526,129.189,262.228,129.087z"/>
					<path fill="#FFFFFF" d="M261.769,137.414c-1.008-0.414-1.995-0.853-2.934-1.305c-0.284-0.137-0.625-0.017-0.764,0.267
						c-0.137,0.285-0.017,0.626,0.268,0.764c0.959,0.462,1.967,0.91,2.995,1.332c0.071,0.03,0.145,0.043,0.217,0.043
						c0.225,0,0.438-0.133,0.529-0.354C262.2,137.868,262.061,137.534,261.769,137.414z"/>
					<path fill="#FFFFFF" d="M217.826,97.703c-0.231-0.214-0.595-0.198-0.808,0.033c-0.214,0.233-0.199,0.594,0.033,0.808
						c0.794,0.731,1.583,1.467,2.372,2.208c0.11,0.104,0.25,0.155,0.392,0.155c0.152,0,0.304-0.061,0.417-0.181
						c0.216-0.23,0.205-0.592-0.025-0.808C219.415,99.175,218.622,98.436,217.826,97.703z"/>
					<path fill="#FFFFFF" d="M138.32,91.013c-0.823,0.718-1.63,1.471-2.399,2.238c-0.223,0.223-0.225,0.585-0.001,0.809
						c0.112,0.112,0.258,0.168,0.405,0.168c0.146,0,0.292-0.056,0.404-0.167c0.751-0.749,1.541-1.485,2.344-2.187
						c0.238-0.208,0.263-0.568,0.055-0.806C138.919,90.828,138.559,90.804,138.32,91.013z"/>
					<path fill="#FFFFFF" d="M149.186,83.715c-0.974,0.493-1.942,1.021-2.879,1.568c-0.272,0.159-0.364,0.51-0.205,0.783
						c0.106,0.182,0.298,0.283,0.495,0.283c0.098,0,0.197-0.025,0.288-0.078c0.917-0.536,1.866-1.052,2.819-1.535
						c0.282-0.143,0.395-0.487,0.252-0.77C149.812,83.686,149.469,83.572,149.186,83.715z"/>
					<path fill="#FFFFFF" d="M143.527,87.025c-0.907,0.608-1.804,1.25-2.667,1.911c-0.251,0.192-0.299,0.551-0.107,0.802
						c0.112,0.147,0.283,0.225,0.455,0.225c0.122,0,0.244-0.039,0.347-0.118c0.844-0.646,1.722-1.274,2.608-1.868
						c0.263-0.176,0.333-0.531,0.157-0.794C144.145,86.919,143.789,86.849,143.527,87.025z"/>
					<path fill="#FFFFFF" d="M155.197,81.105c-1.025,0.376-2.049,0.785-3.043,1.217c-0.29,0.126-0.423,0.462-0.297,0.752
						c0.093,0.216,0.304,0.344,0.525,0.344c0.076,0,0.153-0.015,0.228-0.047c0.974-0.423,1.978-0.824,2.982-1.193
						c0.296-0.108,0.449-0.437,0.34-0.734C155.822,81.149,155.496,80.997,155.197,81.105z"/>
					<path fill="#FFFFFF" d="M247.689,115.584c0.14,0,0.28-0.051,0.39-0.154c0.709-0.661,1.55-1.294,2.499-1.881
						c0.269-0.167,0.352-0.519,0.186-0.788c-0.166-0.27-0.52-0.353-0.788-0.186c-1.013,0.627-1.913,1.306-2.676,2.018
						c-0.231,0.216-0.244,0.578-0.029,0.809C247.383,115.523,247.536,115.584,247.689,115.584z"/>
					<path fill="#FFFFFF" d="M354.715,114.894c0.966,0.587,1.792,1.224,2.455,1.893c0.112,0.112,0.259,0.169,0.406,0.169
						c0.146,0,0.292-0.055,0.403-0.166c0.225-0.223,0.226-0.584,0.003-0.809c-0.729-0.734-1.627-1.428-2.672-2.064
						c-0.27-0.164-0.622-0.078-0.786,0.192C354.36,114.377,354.446,114.729,354.715,114.894z"/>
					<path fill="#FFFFFF" d="M341.883,110.593c1.042,0.275,2.081,0.561,3.118,0.857c0.052,0.015,0.105,0.022,0.157,0.022
						c0.25,0,0.479-0.164,0.55-0.415c0.087-0.304-0.089-0.62-0.393-0.707c-1.044-0.298-2.091-0.585-3.14-0.863
						c-0.303-0.078-0.619,0.101-0.699,0.406C341.396,110.2,341.578,110.513,341.883,110.593z"/>
					<path fill="#FFFFFF" d="M161.469,79.209c-1.057,0.255-2.122,0.543-3.163,0.858c-0.302,0.091-0.474,0.411-0.382,0.713
						c0.075,0.248,0.302,0.407,0.548,0.407c0.054,0,0.11-0.008,0.165-0.025c1.021-0.308,2.064-0.591,3.101-0.84
						c0.307-0.074,0.496-0.383,0.422-0.69C162.085,79.325,161.779,79.137,161.469,79.209z"/>
					<path fill="#FFFFFF" d="M212.953,93.38c-0.241-0.204-0.602-0.174-0.807,0.066c-0.205,0.242-0.175,0.603,0.066,0.807
						c0.82,0.696,1.632,1.404,2.44,2.121c0.109,0.097,0.244,0.145,0.379,0.145c0.158,0,0.314-0.065,0.427-0.192
						c0.21-0.235,0.189-0.598-0.047-0.807C214.598,94.795,213.779,94.082,212.953,93.38z"/>
					<path fill="#FFFFFF" d="M202.454,85.622c-0.27-0.166-0.621-0.082-0.787,0.188c-0.166,0.269-0.083,0.621,0.187,0.787
						c0.886,0.545,1.793,1.135,2.696,1.753c0.099,0.068,0.211,0.1,0.322,0.1c0.183,0,0.362-0.087,0.472-0.249
						c0.178-0.261,0.112-0.617-0.149-0.795C204.278,86.777,203.355,86.178,202.454,85.622z"/>
					<path fill="#FFFFFF" d="M167.916,78.045c-1.082,0.132-2.171,0.297-3.241,0.489c-0.311,0.057-0.517,0.354-0.461,0.665
						c0.05,0.276,0.291,0.47,0.563,0.47c0.034,0,0.068-0.003,0.102-0.009c1.047-0.189,2.116-0.35,3.176-0.479
						c0.313-0.038,0.537-0.323,0.498-0.637C168.515,78.231,168.231,78.007,167.916,78.045z"/>
					<path fill="#FFFFFF" d="M207.854,89.306c-0.253-0.188-0.612-0.137-0.8,0.117c-0.189,0.253-0.137,0.611,0.117,0.8
						c0.86,0.642,1.71,1.3,2.551,1.973c0.105,0.084,0.232,0.125,0.357,0.125c0.168,0,0.334-0.073,0.447-0.214
						c0.198-0.247,0.158-0.607-0.089-0.804C209.585,90.622,208.725,89.956,207.854,89.306z"/>
					<path fill="#FFFFFF" d="M193.701,81.177c-1.011-0.4-2.051-0.771-3.092-1.104c-0.301-0.098-0.623,0.07-0.719,0.37
						c-0.097,0.301,0.07,0.623,0.371,0.719c1.017,0.325,2.033,0.688,3.019,1.078c0.07,0.027,0.141,0.041,0.211,0.041
						c0.228,0,0.443-0.137,0.532-0.362C194.139,81.625,193.995,81.293,193.701,81.177z"/>
					<path fill="#FFFFFF" d="M199.627,83.976c-0.962-0.526-1.943-1.027-2.916-1.489c-0.286-0.136-0.627-0.014-0.762,0.271
						c-0.135,0.285-0.014,0.626,0.271,0.762c0.953,0.452,1.915,0.943,2.856,1.459c0.087,0.048,0.182,0.07,0.274,0.07
						c0.202,0,0.398-0.107,0.502-0.297C200.005,84.475,199.904,84.127,199.627,83.976z"/>
					<path fill="#FFFFFF" d="M187.452,79.177c-1.049-0.261-2.129-0.493-3.208-0.688c-0.308-0.058-0.608,0.149-0.665,0.46
						c-0.057,0.311,0.149,0.608,0.46,0.665c1.055,0.192,2.11,0.419,3.136,0.674c0.046,0.011,0.093,0.017,0.138,0.017
						c0.256,0,0.49-0.173,0.555-0.434C187.945,79.563,187.758,79.254,187.452,79.177z"/>
					<path fill="#FFFFFF" d="M174.458,77.635c0,0-0.001,0-0.002,0c-1.081,0.004-2.183,0.041-3.276,0.109
						c-0.315,0.02-0.555,0.292-0.535,0.606c0.019,0.303,0.271,0.536,0.57,0.536c0.012,0,0.024,0,0.037-0.001
						c1.07-0.067,2.15-0.103,3.209-0.107c0.315-0.001,0.571-0.258,0.569-0.574C175.029,77.89,174.773,77.635,174.458,77.635z"/>
					<path fill="#FFFFFF" d="M181,78.003c-1.077-0.126-2.176-0.222-3.267-0.283c-0.339-0.021-0.586,0.223-0.604,0.538
						c-0.018,0.316,0.224,0.586,0.539,0.604c1.068,0.06,2.145,0.153,3.198,0.277c0.023,0.003,0.045,0.004,0.067,0.004
						c0.286,0,0.534-0.214,0.568-0.505C181.538,78.324,181.313,78.04,181,78.003z"/>
					<path fill="#FFFFFF" d="M345.055,144.722c-1.08,0.041-2.16,0.081-3.241,0.118c-0.316,0.011-0.563,0.275-0.552,0.591
						c0.011,0.31,0.264,0.553,0.571,0.553c0.007,0,0.013,0,0.02,0c1.083-0.038,2.164-0.077,3.245-0.119
						c0.316-0.012,0.562-0.277,0.55-0.593C345.637,144.955,345.36,144.713,345.055,144.722z"/>
					<path fill="#FFFFFF" d="M348.261,129.354c0.066,0,0.135-0.012,0.201-0.037c1.02-0.382,2.032-0.785,3.036-1.208
						c0.291-0.122,0.427-0.458,0.305-0.749c-0.123-0.292-0.46-0.428-0.749-0.304c-0.99,0.417-1.987,0.814-2.993,1.191
						c-0.296,0.11-0.445,0.44-0.335,0.736C347.811,129.212,348.029,129.354,348.261,129.354z"/>
					<path fill="#FFFFFF" d="M345.021,129.32c-1.019,0.338-2.046,0.659-3.078,0.961c-0.303,0.089-0.477,0.407-0.388,0.71
						c0.073,0.25,0.302,0.411,0.549,0.411c0.053,0,0.107-0.007,0.161-0.022c1.045-0.307,2.084-0.63,3.117-0.973
						c0.3-0.1,0.462-0.423,0.363-0.723C345.645,129.384,345.322,129.223,345.021,129.32z"/>
					<path fill="#FFFFFF" d="M351.537,144.459l-3.241,0.134c-0.315,0.013-0.561,0.28-0.548,0.595
						c0.012,0.308,0.266,0.548,0.571,0.548c0.008,0,0.016,0,0.024,0l3.243-0.134c0.315-0.013,0.561-0.28,0.547-0.595
						C352.119,144.691,351.867,144.44,351.537,144.459z"/>
					<path fill="#FFFFFF" d="M352.315,112.435c-0.417-0.164-0.832-0.312-1.239-0.443c-0.627-0.2-1.255-0.397-1.884-0.591
						c-0.3-0.094-0.621,0.078-0.715,0.378c-0.093,0.303,0.077,0.623,0.379,0.715c0.625,0.192,1.248,0.387,1.871,0.586
						c0.384,0.123,0.775,0.263,1.168,0.418c0.069,0.027,0.14,0.04,0.21,0.04c0.228,0,0.443-0.138,0.532-0.362
						C352.753,112.883,352.609,112.551,352.315,112.435z"/>
					<path fill="#FFFFFF" d="M338.833,131.134c-1.041,0.267-2.087,0.518-3.137,0.752c-0.309,0.069-0.503,0.375-0.434,0.683
						c0.059,0.267,0.295,0.448,0.558,0.448c0.041,0,0.083-0.005,0.125-0.014c1.063-0.237,2.12-0.489,3.173-0.76
						c0.305-0.079,0.49-0.391,0.412-0.696C339.451,131.24,339.143,131.059,338.833,131.134z"/>
					<path fill="#FFFFFF" d="M354.481,126.777l0.326-0.155c0.806-0.385,1.744-0.862,2.596-1.478
						c0.256-0.185,0.314-0.542,0.129-0.798c-0.184-0.255-0.542-0.314-0.798-0.129c-0.778,0.562-1.66,1.009-2.421,1.373l-0.319,0.152
						c-0.285,0.135-0.408,0.476-0.273,0.761c0.097,0.207,0.303,0.328,0.518,0.328C354.319,126.832,354.403,126.814,354.481,126.777z
						"/>
					<path fill="#FFFFFF" d="M329.449,134.245c0.031,0,0.062-0.002,0.093-0.008c1.073-0.176,2.143-0.366,3.21-0.571
						c0.31-0.06,0.513-0.36,0.454-0.67c-0.061-0.311-0.36-0.518-0.67-0.453c-1.056,0.204-2.116,0.392-3.179,0.566
						c-0.312,0.051-0.523,0.345-0.471,0.657C328.931,134.046,329.173,134.245,329.449,134.245z"/>
					<path fill="#FFFFFF" d="M332.757,145.122c-1.08,0.023-2.16,0.044-3.241,0.062c-0.316,0.005-0.568,0.265-0.563,0.581
						c0.005,0.313,0.26,0.563,0.572,0.563c0.003,0,0.006,0,0.009,0c1.083-0.017,2.166-0.038,3.248-0.061
						c0.316-0.007,0.566-0.269,0.56-0.584C333.335,145.366,333.095,145.157,332.757,145.122z"/>
					<path fill="#FFFFFF" d="M338.574,144.949c-1.081,0.034-2.161,0.065-3.241,0.094c-0.315,0.008-0.565,0.271-0.557,0.587
						c0.009,0.311,0.263,0.557,0.572,0.557c0.005,0,0.011,0,0.016,0c1.082-0.028,2.165-0.061,3.246-0.095
						c0.316-0.01,0.563-0.274,0.554-0.589C339.154,145.186,338.879,144.918,338.574,144.949z"/>
					<path fill="#FFFFFF" d="M364.496,143.858c-1.08,0.063-2.159,0.121-3.235,0.174c-0.316,0.016-0.559,0.284-0.544,0.599
						c0.015,0.306,0.269,0.544,0.571,0.544c0.009,0,0.019,0,0.028,0c1.082-0.053,2.164-0.111,3.247-0.175
						c0.315-0.019,0.556-0.289,0.537-0.604C365.082,144.08,364.808,143.842,364.496,143.858z"/>
					<path fill="#FFFFFF" d="M274.678,132.466c-1.055-0.218-2.105-0.451-3.152-0.699c-0.303-0.073-0.615,0.117-0.688,0.424
						c-0.073,0.307,0.117,0.615,0.424,0.688c1.057,0.252,2.119,0.487,3.185,0.707c0.04,0.008,0.078,0.012,0.116,0.012
						c0.266,0,0.504-0.186,0.56-0.456C275.186,132.832,274.987,132.529,274.678,132.466z"/>
					<path fill="#FFFFFF" d="M377.365,142.639c-1.063,0.152-2.131,0.289-3.2,0.412c-0.314,0.036-0.54,0.319-0.504,0.633
						c0.034,0.292,0.282,0.507,0.567,0.507c0.022,0,0.045-0.001,0.066-0.004c1.08-0.124,2.16-0.262,3.234-0.415
						c0.312-0.045,0.53-0.334,0.485-0.647S377.686,142.594,377.365,142.639z"/>
					<path fill="#FFFFFF" d="M383.713,141.514c-1.048,0.226-2.102,0.431-3.162,0.617c-0.311,0.055-0.519,0.352-0.464,0.663
						c0.048,0.277,0.289,0.473,0.562,0.473c0.033,0,0.067-0.003,0.101-0.008c1.075-0.189,2.144-0.397,3.205-0.626
						c0.308-0.066,0.505-0.371,0.438-0.68C384.327,141.646,384.025,141.443,383.713,141.514z"/>
					<path fill="#FFFFFF" d="M396.709,137.934c-0.129-0.289-0.465-0.418-0.756-0.293c-0.965,0.425-1.965,0.831-2.975,1.206
						c-0.297,0.11-0.445,0.439-0.336,0.735c0.086,0.23,0.303,0.373,0.535,0.373c0.066,0,0.135-0.012,0.201-0.036
						c1.027-0.383,2.051-0.797,3.035-1.231C396.703,138.56,396.836,138.223,396.709,137.934z"/>
					<path fill="#FFFFFF" d="M326.163,133.591c-1.067,0.148-2.135,0.283-3.206,0.406c-0.314,0.036-0.539,0.32-0.503,0.633
						c0.034,0.292,0.281,0.507,0.568,0.507c0.022,0,0.043-0.001,0.066-0.004c1.08-0.124,2.157-0.26,3.233-0.409
						c0.313-0.043,0.531-0.333,0.487-0.646C326.764,133.766,326.473,133.544,326.163,133.591z"/>
					<path fill="#FFFFFF" d="M370.949,143.38c-1.072,0.099-2.147,0.186-3.224,0.265c-0.315,0.023-0.551,0.297-0.528,0.612
						c0.022,0.3,0.273,0.53,0.57,0.53c0.014,0,0.028-0.001,0.042-0.002c1.083-0.079,2.165-0.167,3.245-0.266
						c0.314-0.029,0.546-0.308,0.517-0.623C371.541,143.583,371.262,143.355,370.949,143.38z"/>
					<path fill="#FFFFFF" d="M359.147,118.537c-0.301,0.095-0.467,0.417-0.372,0.718c0.125,0.394,0.189,0.793,0.189,1.187
						c0,0.502-0.104,1.012-0.338,1.584l0.527,0.222l0.561,0.141c0.262-0.641,0.395-1.296,0.395-1.948
						c0-0.512-0.082-1.027-0.243-1.533C359.77,118.608,359.45,118.44,359.147,118.537z"/>
					<path fill="#FFFFFF" d="M358.02,144.182l-3.242,0.141c-0.315,0.014-0.56,0.281-0.546,0.596
						c0.013,0.307,0.266,0.547,0.571,0.547c0.008,0,0.017,0,0.025,0l3.242-0.14c0.315-0.014,0.56-0.281,0.546-0.597
						C358.603,144.412,358.318,144.161,358.02,144.182z"/>
					<path fill="#FFFFFF" d="M389.939,139.886c-1.004,0.313-2.045,0.611-3.092,0.884c-0.307,0.08-0.49,0.392-0.408,0.698
						c0.066,0.257,0.297,0.428,0.553,0.428c0.047,0,0.096-0.006,0.143-0.019c1.066-0.277,2.125-0.58,3.146-0.899
						c0.301-0.094,0.469-0.415,0.375-0.716C390.561,139.96,390.246,139.793,389.939,139.886z"/>
					<path fill="#FFFFFF" d="M319.741,134.333c-1.073,0.101-2.147,0.189-3.223,0.27c-0.315,0.023-0.551,0.298-0.528,0.613
						c0.022,0.3,0.273,0.53,0.57,0.53c0.014,0,0.028-0.001,0.043-0.002c1.082-0.08,2.164-0.17,3.245-0.271
						c0.314-0.029,0.545-0.309,0.516-0.624S320.056,134.289,319.741,134.333z"/>
					<path fill="#FFFFFF" d="M281.587,104.982c-1.08,0.116-2.157,0.241-3.234,0.378c-0.313,0.04-0.535,0.326-0.495,0.639
						c0.037,0.289,0.283,0.5,0.567,0.5c0.024,0,0.048-0.001,0.072-0.004c1.069-0.136,2.14-0.261,3.212-0.376
						c0.314-0.034,0.541-0.315,0.508-0.629C282.183,105.177,281.911,104.951,281.587,104.982z"/>
					<path fill="#FFFFFF" d="M287.45,134.394c-1.072-0.106-2.143-0.226-3.212-0.359c-0.309-0.04-0.599,0.183-0.638,0.497
						c-0.039,0.313,0.183,0.599,0.497,0.638c1.078,0.134,2.157,0.254,3.24,0.362c0.019,0.001,0.038,0.002,0.057,0.002
						c0.29,0,0.539-0.22,0.568-0.515C287.994,134.706,287.764,134.425,287.45,134.394z"/>
					<path fill="#FFFFFF" d="M291.87,143.932c-1.074-0.105-2.146-0.218-3.219-0.34c-0.319-0.038-0.597,0.19-0.632,0.504
						c-0.036,0.314,0.189,0.597,0.503,0.632c1.078,0.122,2.156,0.236,3.235,0.342c0.019,0.001,0.038,0.002,0.056,0.002
						c0.291,0,0.54-0.22,0.569-0.516C292.414,144.242,292.184,143.962,291.87,143.932z"/>
					<path fill="#FFFFFF" d="M281.038,133.596c-1.066-0.16-2.129-0.333-3.188-0.521c-0.316-0.057-0.608,0.152-0.663,0.463
						c-0.056,0.311,0.152,0.608,0.463,0.663c1.069,0.19,2.142,0.365,3.218,0.526c0.028,0.004,0.058,0.006,0.085,0.006
						c0.279,0,0.522-0.203,0.565-0.487C281.565,133.934,281.35,133.643,281.038,133.596z"/>
					<path fill="#FFFFFF" d="M293.895,134.888c-1.076-0.058-2.151-0.128-3.226-0.21c-0.31-0.029-0.59,0.212-0.614,0.526
						c-0.024,0.315,0.211,0.59,0.526,0.614c1.083,0.083,2.167,0.154,3.251,0.212c0.01,0.001,0.021,0.001,0.032,0.001
						c0.302,0,0.554-0.236,0.571-0.541C294.452,135.175,294.21,134.905,293.895,134.888z"/>
					<path fill="#FFFFFF" d="M275.127,105.802c-1.074,0.158-2.146,0.325-3.216,0.503c-0.312,0.052-0.522,0.346-0.47,0.658
						c0.046,0.28,0.289,0.479,0.563,0.479c0.031,0,0.063-0.002,0.095-0.008c1.063-0.177,2.128-0.344,3.195-0.5
						c0.312-0.046,0.528-0.336,0.482-0.649C275.729,105.972,275.446,105.749,275.127,105.802z"/>
					<path fill="#FFFFFF" d="M280.429,142.336c-1.061-0.173-2.123-0.359-3.182-0.558c-0.315-0.058-0.61,0.146-0.668,0.456
						c-0.059,0.31,0.146,0.61,0.456,0.667c1.07,0.202,2.141,0.389,3.21,0.564c0.031,0.005,0.062,0.007,0.092,0.007
						c0.276,0,0.518-0.2,0.564-0.48C280.953,142.681,280.741,142.387,280.429,142.336z"/>
					<path fill="#FFFFFF" d="M286.832,143.267c-1.07-0.138-2.138-0.283-3.206-0.438c-0.319-0.051-0.604,0.171-0.648,0.483
						c-0.046,0.313,0.171,0.603,0.483,0.648c1.074,0.157,2.149,0.303,3.224,0.442c0.025,0.003,0.05,0.004,0.074,0.004
						c0.284,0,0.53-0.21,0.567-0.499C287.366,143.594,287.145,143.307,286.832,143.267z"/>
					<path fill="#FFFFFF" d="M300.358,135.107c-1.077-0.015-2.154-0.04-3.232-0.076c-0.276-0.022-0.58,0.236-0.59,0.552
						c-0.011,0.315,0.236,0.58,0.552,0.59c1.085,0.037,2.17,0.062,3.255,0.077c0.003,0,0.005,0,0.008,0
						c0.312,0,0.567-0.251,0.572-0.564C300.927,135.371,300.674,135.111,300.358,135.107z"/>
					<path fill="#FFFFFF" d="M308.181,104.326c-1.084-0.05-2.168-0.09-3.253-0.12c-0.301-0.01-0.579,0.24-0.588,0.557
						c-0.008,0.315,0.241,0.579,0.556,0.587c1.078,0.029,2.155,0.069,3.231,0.119c0.01,0,0.019,0,0.027,0
						c0.304,0,0.556-0.239,0.571-0.545C308.74,104.609,308.497,104.341,308.181,104.326z"/>
					<path fill="#FFFFFF" d="M313.291,134.813c-0.632,0.036-1.264,0.068-1.896,0.099l-1.337,0.059
						c-0.316,0.013-0.561,0.279-0.548,0.595c0.013,0.308,0.266,0.549,0.571,0.549c0.008,0,0.016,0,0.024,0l1.345-0.06
						c0.635-0.03,1.27-0.063,1.905-0.1c0.315-0.018,0.556-0.288,0.539-0.604C313.876,135.037,313.616,134.788,313.291,134.813z"/>
					<path fill="#FFFFFF" d="M315.226,104.689c-1.082-0.091-2.164-0.172-3.247-0.244c-0.309-0.015-0.587,0.218-0.608,0.534
						c-0.021,0.315,0.218,0.587,0.534,0.608c1.075,0.07,2.15,0.151,3.225,0.242c0.016,0.001,0.032,0.002,0.048,0.002
						c0.294,0,0.544-0.226,0.569-0.523C315.774,104.993,315.541,104.716,315.226,104.689z"/>
					<path fill="#FFFFFF" d="M306.825,135.074c-1.077,0.025-2.155,0.041-3.233,0.046c-0.316,0.001-0.571,0.259-0.569,0.574
						c0.001,0.315,0.257,0.569,0.572,0.569c0.001,0,0.002,0,0.003,0c1.085-0.005,2.171-0.021,3.255-0.046
						c0.315-0.007,0.565-0.269,0.558-0.585C307.402,135.316,307.137,135.043,306.825,135.074z"/>
					<path fill="#FFFFFF" d="M301.088,104.022c-0.22-0.002-0.44,0.001-0.661,0.001c-0.094,0.296-0.222,0.715-0.339,1.144
						c0.33,0.001,0.66-0.004,0.99-0.001c0.001,0,0.003,0,0.005,0c0.314,0,0.569-0.253,0.572-0.567
						C301.658,104.283,301.404,104.025,301.088,104.022z"/>
				</g>
				<path fill="#FFFFFF" d="M132.977,97.929c-0.126,0-0.254-0.042-0.36-0.128c-0.246-0.2-0.282-0.56-0.083-0.805
					c0.347-0.426,0.701-0.846,1.061-1.259c0.208-0.238,0.569-0.262,0.807-0.055c0.238,0.208,0.263,0.568,0.056,0.807
					c-0.352,0.403-0.697,0.813-1.035,1.229C133.308,97.856,133.143,97.929,132.977,97.929z"/>
			</g>
			<g>
				<path fill="#A3A39F" d="M64.541,233.317c-0.294,1.22-3.072,14.397-3.072,14.397l-28.747-2.763L64.541,233.317z"/>
				<polygon fill="#F6F6F2" points="27.563,228.104 64.541,233.317 32.722,244.952 				"/>
				<polygon fill="#E5E5E3" points="64.541,233.317 91.391,245.519 32.722,244.952 				"/>
			</g>
			<g>
				
					<rect x="73.469" y="231.122" transform="matrix(0.2335 0.9724 -0.9724 0.2335 282.2747 105.7852)" fill="#FFFFFF" width="1.144" height="1.621"/>
				<path fill="#FFFFFF" d="M78.092,231.536l-0.271-1.11l3.123-0.769l0.275,1.11L78.092,231.536z M84.345,229.983l-0.282-1.108
					c1.038-0.264,2.076-0.53,3.113-0.801l0.29,1.105C86.426,229.453,85.385,229.72,84.345,229.983z M90.581,228.355l-0.297-1.104
					c1.034-0.279,2.066-0.562,3.096-0.854l0.311,1.102C92.655,227.791,91.619,228.076,90.581,228.355z M96.789,226.612l-0.322-1.098
					c1.027-0.302,2.053-0.608,3.074-0.924l0.337,1.093C98.852,226.001,97.822,226.311,96.789,226.612z M102.956,224.709
					l-0.353-1.088c1.018-0.33,2.033-0.669,3.043-1.016l0.371,1.082C105,224.036,103.98,224.377,102.956,224.709z M109.062,222.611
					l-0.392-1.074c1.005-0.367,2.006-0.743,3.002-1.129l0.414,1.066C111.083,221.864,110.074,222.243,109.062,222.611z
					 M115.084,220.274l-0.437-1.057c0.987-0.409,1.97-0.828,2.946-1.259l0.462,1.045
					C117.071,219.439,116.081,219.863,115.084,220.274z M120.996,217.662l-0.488-1.034c0.964-0.455,1.923-0.925,2.875-1.407
					l0.519,1.02C122.939,216.729,121.971,217.202,120.996,217.662z M126.765,214.737l-0.546-1.006
					c0.936-0.508,1.865-1.032,2.787-1.571l0.578,0.987C128.651,213.693,127.712,214.222,126.765,214.737z M132.349,211.471
					l-0.61-0.968c0.898-0.567,1.79-1.152,2.671-1.755l0.645,0.945C134.162,210.302,133.26,210.896,132.349,211.471z
					 M137.693,207.812l-0.682-0.918c0.854-0.635,1.699-1.286,2.53-1.954l0.716,0.892
					C139.415,206.508,138.56,207.169,137.693,207.812z M142.746,203.755l-0.751-0.862c0.804-0.699,1.595-1.413,2.371-2.146
					l0.784,0.834C144.362,202.321,143.561,203.047,142.746,203.755z M147.465,199.311l-0.818-0.8
					c0.746-0.762,1.475-1.539,2.187-2.33l0.85,0.767C148.961,197.749,148.221,198.538,147.465,199.311z M151.8,194.488l-0.884-0.727
					c0.678-0.823,1.336-1.659,1.974-2.51l0.915,0.686C153.157,192.801,152.488,193.651,151.8,194.488z M155.691,189.293
					l-0.947-0.642c0.599-0.884,1.179-1.787,1.725-2.685l0.977,0.595C156.891,187.475,156.3,188.394,155.691,189.293z
					 M159.063,183.745l-1.006-0.543c0.508-0.944,0.992-1.9,1.437-2.845l1.034,0.487
					C160.074,181.808,159.581,182.783,159.063,183.745z M147.887,181.689l-0.013-1.144c1.055-0.013,2.122-0.064,3.172-0.152
					l0.096,1.14C150.064,181.625,148.969,181.677,147.887,181.689z M144.627,181.606c-0.804-0.051-1.607-0.124-2.408-0.22
					c-0.279-0.032-0.559-0.07-0.841-0.113l0.17-1.13c0.269,0.04,0.539,0.076,0.806,0.108c0.781,0.094,1.563,0.164,2.346,0.213
					L144.627,181.606z M154.377,181.144l-0.178-1.131c1.044-0.164,2.093-0.367,3.118-0.605l0.258,1.114
					C156.524,180.766,155.448,180.975,154.377,181.144z M138.164,180.599c-1.064-0.289-2.113-0.636-3.116-1.031l0.42-1.063
					c0.964,0.379,1.971,0.713,2.995,0.991L138.164,180.599z M160.721,179.676l-0.336-1.093c1.009-0.311,2.018-0.66,3.001-1.041
					l0.414,1.065C162.792,178.998,161.756,179.358,160.721,179.676z M132.067,178.183c-0.992-0.537-1.93-1.128-2.787-1.756
					l0.676-0.923c0.816,0.598,1.709,1.161,2.656,1.674L132.067,178.183z M161.83,177.865l-1.061-0.429
					c0.401-0.994,0.772-1.997,1.104-2.983l1.084,0.363C162.618,175.824,162.239,176.85,161.83,177.865z M166.794,177.322
					l-0.488-1.034c0.958-0.452,1.907-0.943,2.82-1.459l0.562,0.997C168.752,176.354,167.779,176.857,166.794,177.322z
					 M126.777,174.262c-0.803-0.824-1.501-1.7-2.075-2.603l0.965-0.614c0.532,0.837,1.181,1.65,1.929,2.419L126.777,174.262z
					 M172.466,174.119l-0.633-0.952c0.824-0.549,1.633-1.129,2.403-1.727l0.174-0.136l0.695,0.909l-0.119,0.092
					C174.145,172.958,173.313,173.555,172.466,174.119z M163.902,171.706l-1.105-0.3c0.277-1.023,0.523-2.064,0.733-3.093
					l1.121,0.228C164.437,169.594,164.185,170.658,163.902,171.706z M177.601,170.107l-0.77-0.847
					c0.775-0.705,1.539-1.454,2.268-2.223l0.83,0.787C179.181,168.615,178.397,169.382,177.601,170.107z M123.262,168.633
					c-0.35-1.068-0.554-2.18-0.606-3.303l1.143-0.053c0.047,1.02,0.232,2.029,0.55,3L123.262,168.633z M182.083,165.38l-0.885-0.725
					c0.667-0.816,1.314-1.666,1.922-2.529l0.935,0.66C183.432,163.671,182.769,164.543,182.083,165.38z M165.196,165.336
					l-1.133-0.156c0.11-0.797,0.2-1.599,0.27-2.405c0.021-0.249,0.04-0.5,0.056-0.753l1.142,0.072
					c-0.017,0.261-0.036,0.522-0.058,0.78C165.401,163.699,165.309,164.52,165.196,165.336z M124.064,162.234l-1.117-0.248
					c0.235-1.059,0.611-2.121,1.116-3.154l1.028,0.503C124.625,160.287,124.28,161.262,124.064,162.234z M185.838,160.06
					l-0.98-0.592c0.546-0.904,1.066-1.837,1.545-2.776l1.019,0.521C186.931,158.174,186.397,159.133,185.838,160.06z
					 M164.403,158.877c-0.068-1.106-0.221-2.14-0.456-3.076l1.109-0.279c0.251,1.004,0.416,2.109,0.488,3.285L164.403,158.877z
					 M126.728,156.699l-0.911-0.69c0.645-0.852,1.388-1.68,2.208-2.462l0.79,0.829C128.039,155.114,127.336,155.896,126.728,156.699
					z M188.801,154.259l-1.054-0.447c0.411-0.967,0.792-1.966,1.134-2.968l1.083,0.371
					C189.614,152.241,189.222,153.266,188.801,154.259z M162.83,152.962c-0.433-0.752-0.959-1.42-1.566-1.984
					c-0.116-0.109-0.234-0.212-0.355-0.312l0.727-0.885c0.14,0.115,0.277,0.236,0.41,0.36c0.689,0.643,1.288,1.4,1.777,2.251
					L162.83,152.962z M131.231,152.376l-0.665-0.932c0.442-0.315,0.894-0.617,1.35-0.901c0.471-0.293,0.95-0.572,1.437-0.837
					l0.546,1.005c-0.467,0.254-0.927,0.521-1.379,0.803C132.083,151.787,131.652,152.075,131.231,152.376z M136.748,149.36
					l-0.432-1.059c1.005-0.411,2.048-0.771,3.098-1.074l0.316,1.099C138.719,148.617,137.715,148.966,136.748,149.36z
					 M158.291,149.105c-0.646-0.279-1.361-0.533-2.185-0.776c-0.26-0.076-0.521-0.149-0.784-0.219l0.294-1.106
					c0.272,0.072,0.543,0.148,0.814,0.228c0.869,0.256,1.625,0.525,2.314,0.823L158.291,149.105z M190.905,148.095l-1.107-0.29
					c0.268-1.024,0.5-2.067,0.69-3.099l1.125,0.207C191.418,145.973,191.179,147.044,190.905,148.095z M142.805,147.617
					l-0.198-1.126c1.07-0.188,2.165-0.321,3.253-0.396l0.078,1.142C144.89,147.308,143.835,147.436,142.805,147.617z
					 M152.235,147.477c-1.032-0.152-2.089-0.25-3.142-0.29l0.043-1.143c1.094,0.042,2.192,0.144,3.264,0.302L152.235,147.477z
					 M192.078,141.685l-1.137-0.118c0.11-1.055,0.177-2.12,0.2-3.165l1.144,0.024C192.261,139.503,192.191,140.599,192.078,141.685z
					 M191.073,135.235c-0.07-1.065-0.189-2.123-0.354-3.142l1.129-0.184c0.171,1.057,0.293,2.15,0.366,3.251L191.073,135.235z
					 M190.058,129.004c-0.276-1.024-0.609-2.031-0.988-2.992l1.063-0.421c0.396,1.001,0.742,2.05,1.03,3.116L190.058,129.004z
					 M187.734,123.164c-0.483-0.882-1.022-1.732-1.6-2.526l-0.087-0.12l0.919-0.68l0.093,0.126c0.607,0.834,1.172,1.726,1.678,2.65
					L187.734,123.164z M184.02,118.116c-0.712-0.742-1.491-1.458-2.314-2.131l0.724-0.886c0.859,0.701,1.671,1.451,2.416,2.225
					L184.02,118.116z M179.158,114.125c-0.857-0.561-1.776-1.099-2.728-1.603l0.534-1.011c0.984,0.52,1.932,1.077,2.82,1.655
					L179.158,114.125z M173.567,111.159c-0.94-0.404-1.937-0.792-2.963-1.151l0.378-1.079c1.051,0.368,2.072,0.765,3.036,1.179
					L173.567,111.159z M167.568,109.046c-0.998-0.286-2.038-0.553-3.089-0.796l0.258-1.115c1.07,0.247,2.128,0.52,3.145,0.811
					L167.568,109.046z M119.887,108.626l-0.004-1.144c0.98,0,2.009-0.06,3.149-0.184l0.124,1.137
					C121.974,108.564,120.905,108.626,119.887,108.626z M116.582,108.371c-1.113-0.189-2.193-0.489-3.21-0.891l0.42-1.063
					c0.944,0.372,1.947,0.65,2.981,0.826L116.582,108.371z M126.374,107.98l-0.188-1.128c0.681-0.113,1.362-0.233,2.042-0.354
					l1.124-0.197l0.195,1.127l-1.121,0.197C127.743,107.746,127.059,107.866,126.374,107.98z M161.353,107.598
					c-1.047-0.197-2.099-0.374-3.152-0.533l0.17-1.132c1.068,0.161,2.132,0.341,3.193,0.541L161.353,107.598z M132.708,106.929
					l-0.159-1.133c1.069-0.15,2.141-0.28,3.215-0.391l0.117,1.138C134.822,106.652,133.764,106.78,132.708,106.929z M155.03,106.646
					c-1.059-0.12-2.12-0.222-3.184-0.304l0.088-1.141c1.077,0.083,2.152,0.186,3.225,0.309L155.03,106.646z M139.068,106.273
					l-0.076-1.142c1.077-0.072,2.156-0.124,3.235-0.158l0.035,1.144C141.196,106.15,140.131,106.202,139.068,106.273z
					 M148.655,106.152c-1.065-0.043-2.131-0.068-3.197-0.075l0.006-1.144c1.08,0.006,2.159,0.031,3.237,0.076L148.655,106.152z
					 M110.422,105.892c-0.958-0.685-1.775-1.478-2.427-2.356l0.918-0.681c0.582,0.782,1.313,1.492,2.173,2.107L110.422,105.892z
					 M106.492,100.48c-0.234-0.829-0.353-1.693-0.353-2.569c0-0.273,0.011-0.546,0.034-0.819l1.141,0.094
					c-0.02,0.242-0.03,0.483-0.03,0.726c0,0.771,0.104,1.531,0.31,2.259L106.492,100.48z M108.014,94.224l-1.067-0.412
					c0.384-0.992,0.903-1.986,1.543-2.955l0.954,0.63C108.849,92.388,108.368,93.308,108.014,94.224z M111.384,89.045l-0.834-0.783
					c0.749-0.797,1.569-1.547,2.438-2.229l0.706,0.9C112.869,87.579,112.092,88.29,111.384,89.045z M116.296,85.195l-0.564-0.996
					c0.974-0.553,1.976-1.03,2.977-1.42l0.415,1.066C118.173,84.215,117.222,84.669,116.296,85.195z M122.109,82.966l-0.22-1.123
					c1.146-0.225,2.264-0.32,3.332-0.278l-0.044,1.143C124.193,82.672,123.168,82.758,122.109,82.966z"/>
				<path fill="#FFFFFF" d="M129.679,83.985c-0.436-0.258-0.897-0.479-1.373-0.66l0.407-1.069c0.536,0.204,1.057,0.454,1.548,0.745
					L129.679,83.985z"/>
			</g>
			
				<ellipse transform="matrix(0.9875 0.1573 -0.1573 0.9875 33.5211 -45.974)" opacity="0.3" fill="#262320" cx="307.141" cy="188.739" rx="24.812" ry="10.728"/>
			<ellipse opacity="0.3" fill="#262320" cx="615.876" cy="229.828" rx="17.796" ry="6.864"/>
			<polygon opacity="0.5" fill="#262320" points="35.114,267.062 35.645,254.985 81.86,261.023 			"/>
			<polygon opacity="0.3" fill="#262320" points="397.205,203.126 420.193,207.169 449.809,187.607 408.879,196.398 
				402.354,192.342 386.42,196.382 			"/>
		</g>
	</g>
</g>
<g id="Designed_by_freepik">
</g>
</svg>
